<svg width="500" height="500" viewBox="0 0 500 500" fill="none" xmlns="http://www.w3.org/2000/svg">
<g clip-path="url(#clip0_823_625)">
<path d="M0.0014523 249.835C-0.0355604 260.766 0.634932 271.689 2.00871 282.534C3.60055 295.235 6.18771 307.792 9.74632 320.089C21.4682 360.501 43.2186 397.293 72.9748 427.044C102.731 456.795 139.527 478.539 179.941 490.253C192.228 493.813 204.774 496.411 217.464 498.023C244.995 501.487 272.909 500.393 300.085 494.786C319.199 490.823 337.774 484.595 355.414 476.235C398.157 455.952 434.295 423.999 459.661 384.062C461.97 380.436 464.129 376.746 466.136 372.99C476.058 355.455 483.778 336.763 489.122 317.337C490.967 310.862 492.521 304.063 493.816 297.297C495.111 290.53 496.083 283.57 496.795 276.544C497.637 268.483 498.057 260.357 498.122 252.004C498.169 242.007 497.606 232.017 496.439 222.089C495.662 215.226 494.626 208.459 493.201 201.79C483.499 153.677 459.811 109.499 425.106 74.7932C390.4 40.0876 346.222 16.399 298.11 6.69702C291.397 5.33726 284.62 4.25809 277.778 3.4595C268.558 2.38556 259.284 1.8343 250.001 1.80837C241.102 1.74891 232.207 2.18124 223.356 3.10338C216.363 3.81564 209.403 4.81927 202.604 6.11428C195.805 7.40929 189.104 8.93091 182.531 10.7439C163.098 16.0962 144.397 23.8162 126.846 33.7303C123.091 35.8887 119.4 38.047 115.774 40.2054C99.9867 50.2451 85.361 62.0044 72.1652 75.2677C52.1574 95.3971 35.7339 118.795 23.6028 144.454C15.2574 162.097 9.04087 180.67 5.08432 199.783C1.71852 216.255 0.0156881 233.023 0.0014523 249.835Z" fill="#FFC727"/>
<path opacity="0.1" d="M0.00145776 250.929C-0.0356942 261.901 0.637322 272.862 2.01627 283.747C3.6141 296.494 6.211 309.097 9.783 321.438C21.5491 361.996 43.3812 398.922 73.2495 428.78C103.118 458.639 140.052 480.461 180.619 492.218C192.952 495.791 205.544 498.398 218.283 500.016C245.917 503.492 273.936 502.395 301.214 496.767C320.401 492.79 339.045 486.54 356.751 478.148C399.655 457.793 435.93 425.724 461.391 385.643C463.709 382.004 465.876 378.299 467.89 374.53C477.85 356.932 485.6 338.172 490.963 318.676C492.816 312.178 494.375 305.354 495.675 298.563C496.975 291.772 497.95 284.786 498.665 277.736C499.51 269.645 499.932 261.489 499.997 253.106C500.044 243.074 499.48 233.048 498.307 223.083C497.528 216.195 496.488 209.404 495.058 202.711C485.319 154.424 461.542 110.086 426.706 75.2544C391.87 40.4231 347.526 16.6488 299.232 6.91175C292.494 5.54707 285.692 4.464 278.824 3.66252C269.569 2.58469 260.26 2.03144 250.942 2.00541C242.01 1.94573 233.081 2.37963 224.197 3.30511C217.178 4.01994 210.191 5.02721 203.366 6.3269C196.542 7.6266 189.815 9.15373 183.218 10.9733C163.712 16.345 144.94 24.0929 127.324 34.0429C123.554 36.209 119.85 38.3752 116.21 40.5414C100.363 50.6174 85.6823 62.4193 72.4368 75.7306C52.3537 95.9328 35.8684 119.416 23.6916 145.167C15.3148 162.874 9.0749 181.515 5.10346 200.696C1.72499 217.228 0.0157472 234.056 0.00145776 250.929Z" fill="white"/>
<path opacity="0.05" d="M488.442 181.75C490.363 188.225 492.003 194.894 493.363 201.758C494.723 208.427 495.759 215.194 496.601 222.057C497.768 231.985 498.331 241.975 498.284 251.972C498.284 260.26 497.799 268.451 496.957 276.512C496.245 283.538 495.241 290.434 493.978 297.265C492.716 304.096 491.129 310.733 489.284 317.305C483.951 336.73 476.241 355.422 466.33 372.958C464.172 376.714 462.013 380.404 459.855 384.03C434.49 423.967 398.351 455.92 355.608 476.203C337.905 484.567 319.265 490.784 300.085 494.721C274.039 500.148 247.291 501.351 220.863 498.283L488.442 181.75Z" fill="black"/>
<path opacity="0.15" d="M0.713745 232.902C1.03749 228.305 1.52311 223.772 2.07349 219.24C2.26774 217.718 2.46199 216.229 2.68862 214.707C2.91524 213.186 3.14187 211.47 3.40087 210.078C3.95125 206.84 4.53399 203.279 5.24624 199.912C9.2028 180.8 15.4193 162.226 23.7647 144.583C35.8958 118.924 52.3193 95.5262 72.3271 75.3969C85.5229 62.1336 100.149 50.3743 115.936 40.3346C119.562 38.0251 123.253 35.8668 127.008 33.8595C144.558 23.9454 163.26 16.2254 182.693 10.8731L190.075 8.99536L0.713745 232.902Z" fill="white"/>
<path d="M92.0001 252.101C92.0001 254.985 92.0001 257.869 92.2597 260.522C94.2958 299.075 110.39 335.547 137.499 363.042C164.608 390.537 200.854 407.15 239.384 409.74H241.519C244.404 409.885 247.144 410 249.971 410C289.55 410.04 327.699 395.212 356.857 368.456C386.014 341.699 404.052 304.967 407.394 265.54C407.798 261.07 408 256.571 408 251.986C408 247.4 407.856 243.68 407.51 239.555C404.584 202.047 388.354 166.817 361.744 140.214C335.134 113.612 299.894 97.386 262.376 94.4614C258.308 94.1442 254.154 94 249.971 94C246.423 94 242.846 94 239.384 94.3461C238.374 94.3461 237.394 94.3461 236.499 94.5768C197.057 97.9185 160.311 115.955 133.546 145.111C106.781 174.267 91.9528 212.413 92.0001 251.986V252.101Z" fill="#FE9E02" stroke="#997A24" stroke-width="8"/>
<path d="M264.071 235.014C270.029 235.014 275.987 235.122 281.943 234.987C289.84 234.808 296.426 237.598 301.97 242.968C304.77 245.682 307.499 248.466 310.335 251.142C319.722 260.001 324.536 270.889 324.797 283.546C325.016 294.12 325.545 304.732 324.443 315.268C321.85 340.035 308.72 357.597 285.68 367.998C277.761 371.572 269.354 373.135 260.577 372.991C250.497 372.841 240.415 372.967 230.332 372.953C202.117 372.909 176.351 353.358 169.204 326.626C167.753 321.154 167.024 315.523 167.036 309.869C167.036 300.811 167.036 291.752 167.036 282.694C167.036 279.757 167.214 279.68 169.864 281.058C183.75 288.269 199.881 278.908 199.971 263.528C200.043 251.509 199.932 239.49 200.019 227.474C200.043 224.061 198.875 220.962 197.996 217.781C192.755 198.74 187.51 179.697 182.261 160.651C180.823 155.45 181.537 150.665 185.175 146.526C189.078 142.1 194.126 140.734 199.836 142.003C205.545 143.272 209.102 146.911 210.62 152.38C214.679 166.999 218.668 181.638 222.684 196.268C225.7 207.262 228.72 218.259 231.746 229.26C232.046 230.39 232.442 231.53 231.833 232.664C227.835 240.092 229.792 247.259 233.403 253.991C239.673 265.682 249.96 271.303 263.368 271.524C268.225 271.603 273.091 271.676 277.942 271.485C280.586 271.38 281.775 272.563 282.459 274.793C282.978 276.485 282.696 277.392 280.688 277.836C271.998 279.754 263.972 283.237 256.861 288.498C239.827 301.099 230.596 317.779 229.804 338.778C229.804 339.227 229.804 339.677 229.804 340.123C229.879 342.402 230.948 343.924 233.358 344.135C235.459 344.32 237.26 342.585 237.284 340.164C237.353 335.932 237.638 331.731 238.785 327.649C245.59 303.813 261.204 289.185 286.16 284.392C289.987 283.657 290.87 282.671 290.789 278.77C290.696 274.432 289.237 270.528 286.94 266.871C285.74 264.947 284.077 264.131 281.703 264.092C274.009 263.978 266.292 264.698 258.632 263.702C246.925 262.18 237.41 251.806 237.359 240.733C237.338 236.682 238.707 235.134 242.897 235.07C249.954 234.955 257.005 235.037 264.071 235.037V235.014Z" fill="white"/>
<path d="M271.079 184.661C271.079 197.834 271.013 211.005 271.133 224.176C271.157 226.904 270.26 227.744 267.504 227.7C259.907 227.548 252.304 227.577 244.692 227.7C242.264 227.738 241.246 227.066 241.252 224.534C241.312 198.19 241.252 171.848 241.306 145.504C241.306 139.169 243.984 134.087 250.035 131.406C255.462 129.006 260.799 129.693 265.538 133.359C269.585 136.49 271.052 140.808 271.058 145.695C271.08 158.682 271.087 171.67 271.079 184.661Z" fill="white"/>
<path d="M318.139 138.117C327.42 138.075 334.747 146.391 332.634 155.273C330.02 166.255 326.79 177.1 323.815 188C319.397 204.18 314.972 220.363 310.542 236.55C309.704 239.607 309.443 239.707 307.24 237.592C300.976 231.574 293.555 228.061 284.728 227.691C281.945 227.576 282.741 225.978 283.122 224.574C286.186 213.322 289.302 202.084 292.385 190.84C296.107 177.258 299.824 163.676 303.536 150.092C305.628 142.505 310.986 138.152 318.139 138.117Z" fill="white"/>
<path d="M192.439 245.47C192.439 251.474 192.478 257.475 192.439 263.479C192.379 270.631 186.964 276.032 179.889 276.088C172.721 276.144 167.144 270.913 167.081 263.752C166.973 251.568 166.973 239.383 167.081 227.198C167.156 220.054 172.784 214.902 180.009 214.996C186.943 215.084 192.358 220.468 192.43 227.456C192.487 233.466 192.439 239.469 192.439 245.47Z" fill="white"/>
<path opacity="0.15" d="M454.416 109.781C462.412 121.429 469.408 133.732 475.331 146.559L183.891 491.484C182.564 491.128 181.237 490.804 179.942 490.416C167.741 486.84 155.835 482.326 144.329 476.915L454.416 109.781Z" fill="white"/>
<path opacity="0.15" d="M359.104 27.353C372.176 33.801 384.656 41.3843 396.4 50.0157L75.6295 429.518C65.1688 419.359 55.6244 408.298 47.1072 396.463L359.104 27.353Z" fill="white"/>
<path opacity="0.15" d="M322.715 12.9131C330.42 15.2765 337.996 18.0284 345.378 21.104L38.6573 383.965C34.3514 377.199 30.3369 370.271 26.7109 363.083L322.715 12.9131Z" fill="white"/>
<path d="M89.7769 101.686L93.8885 47.5544L98.0001 101.686L152.131 105.83L98.0001 109.941L93.8885 164.073L89.7769 109.941L35.646 105.83L89.7769 101.686Z" fill="white"/>
<path d="M132.221 146.104L134.228 119.88L136.235 146.104L162.459 148.112L136.235 150.087L134.228 176.343L132.221 150.087L105.997 148.112L132.221 146.104Z" fill="white"/>
<rect x="36" y="262" width="54" height="4" fill="#997A24"/>
<rect x="60" y="234" width="31" height="4" fill="#997A24"/>
<circle cx="28" cy="264" r="9" fill="#997A24"/>
<circle cx="51" cy="236" r="9" fill="#997A24"/>
<rect width="54" height="4" transform="matrix(-1 0 0 1 464 262)" fill="#997A24"/>
<rect width="31" height="4" transform="matrix(-1 0 0 1 440 234)" fill="#997A24"/>
<circle cx="9" cy="9" r="9" transform="matrix(-1 0 0 1 481 255)" fill="#997A24"/>
<circle cx="9" cy="9" r="9" transform="matrix(-1 0 0 1 458 227)" fill="#997A24"/>
<rect x="262" y="466" width="54" height="4" transform="rotate(-90 262 466)" fill="#997A24"/>
<rect x="234" y="442" width="31" height="4" transform="rotate(-90 234 442)" fill="#997A24"/>
<circle cx="264" cy="474" r="9" transform="rotate(-90 264 474)" fill="#997A24"/>
<circle cx="236" cy="451" r="9" transform="rotate(-90 236 451)" fill="#997A24"/>
<rect width="54" height="4" transform="matrix(4.37114e-08 1 1 -4.37114e-08 262 38)" fill="#997A24"/>
<rect width="31" height="4" transform="matrix(4.37114e-08 1 1 -4.37114e-08 234 62)" fill="#997A24"/>
<circle cx="9" cy="9" r="9" transform="matrix(4.37114e-08 1 1 -4.37114e-08 255 21)" fill="#997A24"/>
<circle cx="9" cy="9" r="9" transform="matrix(4.37114e-08 1 1 -4.37114e-08 227 44)" fill="#997A24"/>
</g>
<defs>
<clipPath id="clip0_823_625">
<rect width="500" height="500" fill="white"/>
</clipPath>
</defs>
</svg>
