<svg xmlns="http://www.w3.org/2000/svg" xmlns:xlink="http://www.w3.org/1999/xlink" width="1140" zoomAndPan="magnify" viewBox="0 0 854.88 179.999997" height="240" preserveAspectRatio="xMidYMid meet" version="1.0"><defs><g/><clipPath id="1981fe4302"><path d="M 323.710938 32.445312 L 439 32.445312 L 439 147.929688 L 323.710938 147.929688 Z M 323.710938 32.445312 " clip-rule="nonzero"/></clipPath><clipPath id="f6ce69bda7"><path d="M 323.710938 32.445312 L 439.195312 32.445312 L 439.195312 147.929688 L 323.710938 147.929688 Z M 323.710938 32.445312 " clip-rule="nonzero"/></clipPath><clipPath id="eb21f23c7a"><path d="M 374 74 L 439 74 L 439 147.929688 L 374 147.929688 Z M 374 74 " clip-rule="nonzero"/></clipPath><clipPath id="728a7adbd1"><path d="M 323.710938 34 L 368 34 L 368 87 L 323.710938 87 Z M 323.710938 34 " clip-rule="nonzero"/></clipPath></defs><g fill="#1b1b1b" fill-opacity="1"><g transform="translate(0.913934, 141.55798)"><g><path d="M 35.953125 1.515625 C 30.210938 1.515625 24.875 0.359375 19.9375 -1.953125 C 15 -4.273438 10.972656 -7.601562 7.859375 -11.9375 C 6.648438 -13.75 6.046875 -15.507812 6.046875 -17.21875 C 6.046875 -19.738281 7.023438 -21.851562 8.984375 -23.5625 C 10.953125 -25.269531 12.890625 -26.125 14.796875 -26.125 C 16.304688 -26.125 17.789062 -25.671875 19.25 -24.765625 C 20.71875 -23.859375 22.054688 -22.800781 23.265625 -21.59375 C 25.273438 -19.78125 27.257812 -18.492188 29.21875 -17.734375 C 31.1875 -16.984375 33.429688 -16.609375 35.953125 -16.609375 C 38.972656 -16.609375 41.789062 -17.363281 44.40625 -18.875 C 47.019531 -20.382812 49.132812 -22.398438 50.75 -24.921875 C 52.363281 -27.441406 53.171875 -30.160156 53.171875 -33.078125 L 53.171875 -96.515625 C 53.171875 -99.140625 54.125 -101.332031 56.03125 -103.09375 C 57.945312 -104.851562 60.164062 -105.734375 62.6875 -105.734375 C 65.5 -105.734375 67.757812 -104.851562 69.46875 -103.09375 C 71.1875 -101.332031 72.046875 -99.140625 72.046875 -96.515625 L 72.046875 -33.078125 C 72.046875 -26.929688 70.429688 -21.238281 67.203125 -16 C 63.984375 -10.769531 59.65625 -6.539062 54.21875 -3.3125 C 48.78125 -0.09375 42.691406 1.515625 35.953125 1.515625 Z M 35.953125 1.515625 "/></g></g></g><g fill="#1b1b1b" fill-opacity="1"><g transform="translate(84.284407, 141.55798)"><g><path d="M 75.984375 -82.328125 C 78.597656 -82.328125 80.757812 -81.46875 82.46875 -79.75 C 84.1875 -78.039062 85.046875 -75.828125 85.046875 -73.109375 L 85.046875 -9.21875 C 85.046875 -6.59375 84.1875 -4.398438 82.46875 -2.640625 C 80.757812 -0.878906 78.597656 0 75.984375 0 C 73.359375 0 71.1875 -0.878906 69.46875 -2.640625 C 67.757812 -4.398438 66.90625 -6.59375 66.90625 -9.21875 L 66.90625 -16.609375 L 70.234375 -15.25 C 70.234375 -13.945312 69.523438 -12.363281 68.109375 -10.5 C 66.703125 -8.632812 64.789062 -6.796875 62.375 -4.984375 C 59.957031 -3.171875 57.113281 -1.632812 53.84375 -0.375 C 50.570312 0.882812 47.023438 1.515625 43.203125 1.515625 C 36.253906 1.515625 29.957031 -0.269531 24.3125 -3.84375 C 18.675781 -7.425781 14.222656 -12.363281 10.953125 -18.65625 C 7.679688 -24.945312 6.046875 -32.171875 6.046875 -40.328125 C 6.046875 -48.585938 7.679688 -55.863281 10.953125 -62.15625 C 14.222656 -68.445312 18.625 -73.378906 24.15625 -76.953125 C 29.695312 -80.535156 35.84375 -82.328125 42.59375 -82.328125 C 46.925781 -82.328125 50.90625 -81.671875 54.53125 -80.359375 C 58.15625 -79.046875 61.300781 -77.378906 63.96875 -75.359375 C 66.632812 -73.347656 68.695312 -71.3125 70.15625 -69.25 C 71.613281 -67.1875 72.34375 -65.453125 72.34375 -64.046875 L 66.90625 -62.078125 L 66.90625 -73.109375 C 66.90625 -75.722656 67.757812 -77.910156 69.46875 -79.671875 C 71.1875 -81.441406 73.359375 -82.328125 75.984375 -82.328125 Z M 45.46875 -15.109375 C 49.894531 -15.109375 53.769531 -16.210938 57.09375 -18.421875 C 60.414062 -20.640625 63.007812 -23.660156 64.875 -27.484375 C 66.738281 -31.316406 67.671875 -35.597656 67.671875 -40.328125 C 67.671875 -45.160156 66.738281 -49.488281 64.875 -53.3125 C 63.007812 -57.144531 60.414062 -60.164062 57.09375 -62.375 C 53.769531 -64.59375 49.894531 -65.703125 45.46875 -65.703125 C 41.132812 -65.703125 37.304688 -64.59375 33.984375 -62.375 C 30.660156 -60.164062 28.066406 -57.144531 26.203125 -53.3125 C 24.335938 -49.488281 23.40625 -45.160156 23.40625 -40.328125 C 23.40625 -35.597656 24.335938 -31.316406 26.203125 -27.484375 C 28.066406 -23.660156 30.660156 -20.640625 33.984375 -18.421875 C 37.304688 -16.210938 41.132812 -15.109375 45.46875 -15.109375 Z M 45.46875 -15.109375 "/></g></g></g><g fill="#1b1b1b" fill-opacity="1"><g transform="translate(179.133432, 141.55798)"><g><path d="M 26.890625 -9.21875 C 26.890625 -6.59375 26.03125 -4.398438 24.3125 -2.640625 C 22.601562 -0.878906 20.441406 0 17.828125 0 C 15.203125 0 13.035156 -0.878906 11.328125 -2.640625 C 9.617188 -4.398438 8.765625 -6.59375 8.765625 -9.21875 L 8.765625 -71.59375 C 8.765625 -74.21875 9.617188 -76.410156 11.328125 -78.171875 C 13.035156 -79.929688 15.203125 -80.8125 17.828125 -80.8125 C 20.441406 -80.8125 22.601562 -79.929688 24.3125 -78.171875 C 26.03125 -76.410156 26.890625 -74.21875 26.890625 -71.59375 Z M 17.671875 -90.625 C 14.242188 -90.625 11.820312 -91.175781 10.40625 -92.28125 C 9 -93.394531 8.296875 -95.363281 8.296875 -98.1875 L 8.296875 -101.046875 C 8.296875 -103.972656 9.078125 -105.960938 10.640625 -107.015625 C 12.203125 -108.078125 14.59375 -108.609375 17.8125 -108.609375 C 21.34375 -108.609375 23.8125 -108.050781 25.21875 -106.9375 C 26.625 -105.832031 27.328125 -103.867188 27.328125 -101.046875 L 27.328125 -98.1875 C 27.328125 -95.257812 26.570312 -93.265625 25.0625 -92.203125 C 23.550781 -91.148438 21.085938 -90.625 17.671875 -90.625 Z M 17.671875 -90.625 "/></g></g></g><g fill="#1b1b1b" fill-opacity="1"><g transform="translate(214.777322, 141.55798)"><g><path d="M 21 -105.734375 C 23.414062 -105.734375 25.550781 -104.851562 27.40625 -103.09375 C 29.269531 -101.332031 30.203125 -99.140625 30.203125 -96.515625 L 30.203125 -9.21875 C 30.203125 -6.59375 29.242188 -4.398438 27.328125 -2.640625 C 25.421875 -0.878906 23.207031 0 20.6875 0 C 17.875 0 15.609375 -0.878906 13.890625 -2.640625 C 12.179688 -4.398438 11.328125 -6.59375 11.328125 -9.21875 L 11.328125 -96.515625 C 11.328125 -99.140625 12.234375 -101.332031 14.046875 -103.09375 C 15.859375 -104.851562 18.175781 -105.734375 21 -105.734375 Z M 87.90625 -105.734375 C 90.726562 -105.734375 92.992188 -104.851562 94.703125 -103.09375 C 96.421875 -101.332031 97.28125 -99.140625 97.28125 -96.515625 L 97.28125 -9.21875 C 97.28125 -6.59375 96.394531 -4.398438 94.625 -2.640625 C 92.863281 -0.878906 90.523438 0 87.609375 0 C 85.191406 0 83.050781 -0.878906 81.1875 -2.640625 C 79.320312 -4.398438 78.390625 -6.59375 78.390625 -9.21875 L 78.390625 -96.515625 C 78.390625 -99.140625 79.347656 -101.332031 81.265625 -103.09375 C 83.179688 -104.851562 85.394531 -105.734375 87.90625 -105.734375 Z M 20.546875 -61.78125 L 87.90625 -61.78125 L 87.90625 -44.40625 L 20.546875 -44.40625 Z M 20.546875 -61.78125 "/></g></g></g><g fill="#1b1b1b" fill-opacity="1"><g transform="translate(323.380378, 141.55798)"><g/></g></g><g fill="#1b1b1b" fill-opacity="1"><g transform="translate(365.669755, 141.55798)"><g/></g></g><g fill="#1b1b1b" fill-opacity="1"><g transform="translate(407.959132, 141.55798)"><g/></g></g><g fill="#1b1b1b" fill-opacity="1"><g transform="translate(450.253189, 141.55798)"><g><path d="M 85.34375 -100.59375 C 87.957031 -99.289062 89.488281 -97.226562 89.9375 -94.40625 C 90.394531 -91.582031 89.671875 -89.015625 87.765625 -86.703125 C 86.453125 -84.890625 84.765625 -83.878906 82.703125 -83.671875 C 80.640625 -83.472656 78.550781 -83.878906 76.4375 -84.890625 C 74.007812 -85.992188 71.460938 -86.847656 68.796875 -87.453125 C 66.128906 -88.054688 63.335938 -88.359375 60.421875 -88.359375 C 54.984375 -88.359375 50.125 -87.503906 45.84375 -85.796875 C 41.5625 -84.085938 37.910156 -81.644531 34.890625 -78.46875 C 31.867188 -75.289062 29.578125 -71.535156 28.015625 -67.203125 C 26.453125 -62.878906 25.671875 -58.097656 25.671875 -52.859375 C 25.671875 -46.722656 26.550781 -41.390625 28.3125 -36.859375 C 30.082031 -32.328125 32.523438 -28.550781 35.640625 -25.53125 C 38.765625 -22.507812 42.441406 -20.265625 46.671875 -18.796875 C 50.898438 -17.335938 55.484375 -16.609375 60.421875 -16.609375 C 63.140625 -16.609375 65.859375 -16.859375 68.578125 -17.359375 C 71.296875 -17.867188 73.914062 -18.78125 76.4375 -20.09375 C 78.550781 -21.09375 80.640625 -21.441406 82.703125 -21.140625 C 84.765625 -20.835938 86.5 -19.78125 87.90625 -17.96875 C 89.925781 -15.457031 90.65625 -12.863281 90.09375 -10.1875 C 89.539062 -7.519531 88.007812 -5.582031 85.5 -4.375 C 82.875 -3.070312 80.175781 -1.988281 77.40625 -1.125 C 74.632812 -0.269531 71.835938 0.378906 69.015625 0.828125 C 66.203125 1.285156 63.335938 1.515625 60.421875 1.515625 C 53.171875 1.515625 46.296875 0.359375 39.796875 -1.953125 C 33.304688 -4.273438 27.515625 -7.703125 22.421875 -12.234375 C 17.335938 -16.765625 13.335938 -22.425781 10.421875 -29.21875 C 7.503906 -36.019531 6.046875 -43.898438 6.046875 -52.859375 C 6.046875 -60.617188 7.378906 -67.769531 10.046875 -74.3125 C 12.710938 -80.863281 16.488281 -86.53125 21.375 -91.3125 C 26.257812 -96.09375 32.023438 -99.816406 38.671875 -102.484375 C 45.316406 -105.148438 52.566406 -106.484375 60.421875 -106.484375 C 64.847656 -106.484375 69.175781 -105.976562 73.40625 -104.96875 C 77.632812 -103.96875 81.613281 -102.507812 85.34375 -100.59375 Z M 85.34375 -100.59375 "/></g></g></g><g fill="#1b1b1b" fill-opacity="1"><g transform="translate(544.951173, 141.55798)"><g><path d="M 52.265625 -82.328125 C 59.515625 -82.328125 65.023438 -80.765625 68.796875 -77.640625 C 72.578125 -74.515625 75.171875 -70.359375 76.578125 -65.171875 C 77.992188 -59.984375 78.703125 -54.21875 78.703125 -47.875 L 78.703125 -9.21875 C 78.703125 -6.59375 77.84375 -4.398438 76.125 -2.640625 C 74.414062 -0.878906 72.25 0 69.625 0 C 67.007812 0 64.84375 -0.878906 63.125 -2.640625 C 61.414062 -4.398438 60.5625 -6.59375 60.5625 -9.21875 L 60.5625 -47.875 C 60.5625 -51.195312 60.160156 -54.191406 59.359375 -56.859375 C 58.554688 -59.535156 57.097656 -61.675781 54.984375 -63.28125 C 52.867188 -64.894531 49.847656 -65.703125 45.921875 -65.703125 C 42.085938 -65.703125 38.8125 -64.894531 36.09375 -63.28125 C 33.375 -61.675781 31.332031 -59.535156 29.96875 -56.859375 C 28.613281 -54.191406 27.9375 -51.195312 27.9375 -47.875 L 27.9375 -9.21875 C 27.9375 -6.59375 27.082031 -4.398438 25.375 -2.640625 C 23.664062 -0.878906 21.5 0 18.875 0 C 16.257812 0 14.09375 -0.878906 12.375 -2.640625 C 10.664062 -4.398438 9.8125 -6.59375 9.8125 -9.21875 L 9.8125 -102.5625 C 9.8125 -105.175781 10.664062 -107.363281 12.375 -109.125 C 14.09375 -110.894531 16.257812 -111.78125 18.875 -111.78125 C 21.5 -111.78125 23.664062 -110.894531 25.375 -109.125 C 27.082031 -107.363281 27.9375 -105.175781 27.9375 -102.5625 L 27.9375 -65.09375 L 25.671875 -65.546875 C 26.578125 -67.265625 27.835938 -69.101562 29.453125 -71.0625 C 31.066406 -73.03125 33.03125 -74.867188 35.34375 -76.578125 C 37.65625 -78.296875 40.222656 -79.679688 43.046875 -80.734375 C 45.867188 -81.796875 48.941406 -82.328125 52.265625 -82.328125 Z M 52.265625 -82.328125 "/></g></g></g><g fill="#1b1b1b" fill-opacity="1"><g transform="translate(633.456793, 141.55798)"><g><path d="M 75.984375 -82.328125 C 78.597656 -82.328125 80.757812 -81.46875 82.46875 -79.75 C 84.1875 -78.039062 85.046875 -75.828125 85.046875 -73.109375 L 85.046875 -9.21875 C 85.046875 -6.59375 84.1875 -4.398438 82.46875 -2.640625 C 80.757812 -0.878906 78.597656 0 75.984375 0 C 73.359375 0 71.1875 -0.878906 69.46875 -2.640625 C 67.757812 -4.398438 66.90625 -6.59375 66.90625 -9.21875 L 66.90625 -16.609375 L 70.234375 -15.25 C 70.234375 -13.945312 69.523438 -12.363281 68.109375 -10.5 C 66.703125 -8.632812 64.789062 -6.796875 62.375 -4.984375 C 59.957031 -3.171875 57.113281 -1.632812 53.84375 -0.375 C 50.570312 0.882812 47.023438 1.515625 43.203125 1.515625 C 36.253906 1.515625 29.957031 -0.269531 24.3125 -3.84375 C 18.675781 -7.425781 14.222656 -12.363281 10.953125 -18.65625 C 7.679688 -24.945312 6.046875 -32.171875 6.046875 -40.328125 C 6.046875 -48.585938 7.679688 -55.863281 10.953125 -62.15625 C 14.222656 -68.445312 18.625 -73.378906 24.15625 -76.953125 C 29.695312 -80.535156 35.84375 -82.328125 42.59375 -82.328125 C 46.925781 -82.328125 50.90625 -81.671875 54.53125 -80.359375 C 58.15625 -79.046875 61.300781 -77.378906 63.96875 -75.359375 C 66.632812 -73.347656 68.695312 -71.3125 70.15625 -69.25 C 71.613281 -67.1875 72.34375 -65.453125 72.34375 -64.046875 L 66.90625 -62.078125 L 66.90625 -73.109375 C 66.90625 -75.722656 67.757812 -77.910156 69.46875 -79.671875 C 71.1875 -81.441406 73.359375 -82.328125 75.984375 -82.328125 Z M 45.46875 -15.109375 C 49.894531 -15.109375 53.769531 -16.210938 57.09375 -18.421875 C 60.414062 -20.640625 63.007812 -23.660156 64.875 -27.484375 C 66.738281 -31.316406 67.671875 -35.597656 67.671875 -40.328125 C 67.671875 -45.160156 66.738281 -49.488281 64.875 -53.3125 C 63.007812 -57.144531 60.414062 -60.164062 57.09375 -62.375 C 53.769531 -64.59375 49.894531 -65.703125 45.46875 -65.703125 C 41.132812 -65.703125 37.304688 -64.59375 33.984375 -62.375 C 30.660156 -60.164062 28.066406 -57.144531 26.203125 -53.3125 C 24.335938 -49.488281 23.40625 -45.160156 23.40625 -40.328125 C 23.40625 -35.597656 24.335938 -31.316406 26.203125 -27.484375 C 28.066406 -23.660156 30.660156 -20.640625 33.984375 -18.421875 C 37.304688 -16.210938 41.132812 -15.109375 45.46875 -15.109375 Z M 45.46875 -15.109375 "/></g></g></g><g fill="#1b1b1b" fill-opacity="1"><g transform="translate(728.305807, 141.55798)"><g><path d="M 26.890625 -9.21875 C 26.890625 -6.59375 26.03125 -4.398438 24.3125 -2.640625 C 22.601562 -0.878906 20.441406 0 17.828125 0 C 15.203125 0 13.035156 -0.878906 11.328125 -2.640625 C 9.617188 -4.398438 8.765625 -6.59375 8.765625 -9.21875 L 8.765625 -71.59375 C 8.765625 -74.21875 9.617188 -76.410156 11.328125 -78.171875 C 13.035156 -79.929688 15.203125 -80.8125 17.828125 -80.8125 C 20.441406 -80.8125 22.601562 -79.929688 24.3125 -78.171875 C 26.03125 -76.410156 26.890625 -74.21875 26.890625 -71.59375 Z M 17.671875 -90.625 C 14.242188 -90.625 11.820312 -91.175781 10.40625 -92.28125 C 9 -93.394531 8.296875 -95.363281 8.296875 -98.1875 L 8.296875 -101.046875 C 8.296875 -103.972656 9.078125 -105.960938 10.640625 -107.015625 C 12.203125 -108.078125 14.59375 -108.609375 17.8125 -108.609375 C 21.34375 -108.609375 23.8125 -108.050781 25.21875 -106.9375 C 26.625 -105.832031 27.328125 -103.867188 27.328125 -101.046875 L 27.328125 -98.1875 C 27.328125 -95.257812 26.570312 -93.265625 25.0625 -92.203125 C 23.550781 -91.148438 21.085938 -90.625 17.671875 -90.625 Z M 17.671875 -90.625 "/></g></g></g><g fill="#1b1b1b" fill-opacity="1"><g transform="translate(763.949697, 141.55798)"><g><path d="M 53.015625 -82.328125 C 60.460938 -82.328125 66.125 -80.765625 70 -77.640625 C 73.882812 -74.515625 76.554688 -70.359375 78.015625 -65.171875 C 79.472656 -59.984375 80.203125 -54.21875 80.203125 -47.875 L 80.203125 -9.21875 C 80.203125 -6.59375 79.347656 -4.398438 77.640625 -2.640625 C 75.929688 -0.878906 73.765625 0 71.140625 0 C 68.523438 0 66.359375 -0.878906 64.640625 -2.640625 C 62.929688 -4.398438 62.078125 -6.59375 62.078125 -9.21875 L 62.078125 -47.875 C 62.078125 -51.195312 61.648438 -54.191406 60.796875 -56.859375 C 59.941406 -59.535156 58.40625 -61.675781 56.1875 -63.28125 C 53.96875 -64.894531 50.796875 -65.703125 46.671875 -65.703125 C 42.640625 -65.703125 39.238281 -64.894531 36.46875 -63.28125 C 33.707031 -61.675781 31.59375 -59.535156 30.125 -56.859375 C 28.664062 -54.191406 27.9375 -51.195312 27.9375 -47.875 L 27.9375 -9.21875 C 27.9375 -6.59375 27.082031 -4.398438 25.375 -2.640625 C 23.664062 -0.878906 21.5 0 18.875 0 C 16.257812 0 14.09375 -0.878906 12.375 -2.640625 C 10.664062 -4.398438 9.8125 -6.59375 9.8125 -9.21875 L 9.8125 -71.59375 C 9.8125 -74.21875 10.664062 -76.410156 12.375 -78.171875 C 14.09375 -79.929688 16.257812 -80.8125 18.875 -80.8125 C 21.5 -80.8125 23.664062 -79.929688 25.375 -78.171875 C 27.082031 -76.410156 27.9375 -74.21875 27.9375 -71.59375 L 27.9375 -65.09375 L 25.671875 -65.546875 C 26.578125 -67.265625 27.882812 -69.101562 29.59375 -71.0625 C 31.3125 -73.03125 33.328125 -74.867188 35.640625 -76.578125 C 37.960938 -78.296875 40.582031 -79.679688 43.5 -80.734375 C 46.414062 -81.796875 49.585938 -82.328125 53.015625 -82.328125 Z M 53.015625 -82.328125 "/></g></g></g><g clip-path="url(#1981fe4302)"><path fill="#ffc727" d="M 323.710938 90.148438 C 323.703125 92.671875 323.859375 95.195312 324.175781 97.699219 C 324.542969 100.632812 325.140625 103.535156 325.964844 106.375 C 328.671875 115.707031 333.695312 124.207031 340.566406 131.078125 C 347.441406 137.949219 355.9375 142.972656 365.273438 145.675781 C 368.109375 146.5 371.007812 147.097656 373.9375 147.472656 C 380.296875 148.273438 386.746094 148.019531 393.023438 146.722656 C 397.4375 145.808594 401.726562 144.371094 405.800781 142.4375 C 415.671875 137.753906 424.019531 130.375 429.878906 121.152344 C 430.414062 120.3125 430.910156 119.460938 431.375 118.59375 C 433.667969 114.542969 435.449219 110.226562 436.683594 105.738281 C 437.109375 104.242188 437.46875 102.671875 437.769531 101.109375 C 438.066406 99.546875 438.292969 97.941406 438.457031 96.316406 C 438.648438 94.457031 438.746094 92.578125 438.761719 90.648438 C 438.773438 88.339844 438.644531 86.03125 438.375 83.738281 C 438.195312 82.15625 437.953125 80.59375 437.625 79.050781 C 435.386719 67.9375 429.914062 57.734375 421.898438 49.71875 C 413.882812 41.703125 403.679688 36.230469 392.566406 33.992188 C 391.015625 33.675781 389.449219 33.429688 387.871094 33.242188 C 385.742188 32.996094 383.597656 32.867188 381.453125 32.863281 C 379.398438 32.847656 377.34375 32.949219 375.300781 33.160156 C 373.683594 33.324219 372.078125 33.558594 370.507812 33.855469 C 368.9375 34.15625 367.390625 34.507812 365.871094 34.925781 C 361.382812 36.164062 357.0625 37.945312 353.007812 40.234375 C 352.140625 40.734375 351.289062 41.230469 350.453125 41.730469 C 346.804688 44.050781 343.429688 46.765625 340.378906 49.828125 C 335.757812 54.476562 331.964844 59.882812 329.164062 65.808594 C 327.234375 69.882812 325.800781 74.171875 324.886719 78.589844 C 324.109375 82.390625 323.714844 86.265625 323.710938 90.148438 Z M 323.710938 90.148438 " fill-opacity="1" fill-rule="nonzero"/></g><g clip-path="url(#f6ce69bda7)"><path fill="#ffffff" d="M 323.710938 90.402344 C 323.703125 92.933594 323.859375 95.46875 324.179688 97.980469 C 324.546875 100.925781 325.148438 103.835938 325.972656 106.6875 C 328.6875 116.054688 333.730469 124.582031 340.628906 131.480469 C 347.527344 138.375 356.058594 143.414062 365.429688 146.132812 C 368.277344 146.957031 371.1875 147.558594 374.128906 147.933594 C 380.511719 148.734375 386.984375 148.480469 393.28125 147.183594 C 397.714844 146.261719 402.019531 144.820312 406.109375 142.882812 C 416.019531 138.179688 424.398438 130.773438 430.277344 121.515625 C 430.8125 120.675781 431.316406 119.820312 431.78125 118.949219 C 434.078125 114.882812 435.871094 110.550781 437.109375 106.046875 C 437.535156 104.546875 437.898438 102.972656 438.195312 101.402344 C 438.496094 99.835938 438.722656 98.222656 438.886719 96.59375 C 439.082031 94.722656 439.179688 92.839844 439.195312 90.902344 C 439.207031 88.585938 439.074219 86.269531 438.804688 83.96875 C 438.625 82.378906 438.386719 80.808594 438.054688 79.265625 C 435.804688 68.113281 430.3125 57.871094 422.265625 49.824219 C 414.222656 41.78125 403.980469 36.289062 392.824219 34.039062 C 391.269531 33.726562 389.699219 33.476562 388.113281 33.289062 C 385.972656 33.042969 383.824219 32.914062 381.671875 32.90625 C 379.609375 32.894531 377.546875 32.996094 375.496094 33.207031 C 373.875 33.375 372.257812 33.605469 370.683594 33.90625 C 369.105469 34.207031 367.554688 34.558594 366.03125 34.980469 C 361.523438 36.21875 357.1875 38.007812 353.121094 40.308594 C 352.25 40.808594 351.394531 41.308594 350.554688 41.808594 C 346.894531 44.136719 343.503906 46.863281 340.441406 49.9375 C 335.804688 54.601562 331.996094 60.027344 329.183594 65.972656 C 327.25 70.0625 325.808594 74.367188 324.890625 78.800781 C 324.109375 82.617188 323.714844 86.503906 323.710938 90.402344 Z M 323.710938 90.402344 " fill-opacity="0.1" fill-rule="nonzero"/></g><g clip-path="url(#eb21f23c7a)"><path fill="#000000" d="M 436.527344 74.421875 C 436.96875 75.917969 437.347656 77.457031 437.664062 79.042969 C 437.976562 80.585938 438.214844 82.148438 438.410156 83.734375 C 438.679688 86.027344 438.808594 88.332031 438.800781 90.640625 C 438.800781 92.554688 438.6875 94.449219 438.492188 96.308594 C 438.328125 97.933594 438.097656 99.527344 437.804688 101.101562 C 437.511719 102.679688 437.148438 104.214844 436.722656 105.730469 C 435.488281 110.21875 433.707031 114.535156 431.417969 118.585938 C 430.921875 119.453125 430.421875 120.304688 429.921875 121.144531 C 424.066406 130.367188 415.71875 137.746094 405.847656 142.433594 C 401.757812 144.363281 397.453125 145.800781 393.023438 146.710938 C 387.007812 147.960938 380.828125 148.242188 374.722656 147.53125 Z M 436.527344 74.421875 " fill-opacity="0.05" fill-rule="nonzero"/></g><g clip-path="url(#728a7adbd1)"><path fill="#ffffff" d="M 323.878906 86.238281 C 323.953125 85.175781 324.0625 84.128906 324.191406 83.082031 C 324.234375 82.730469 324.28125 82.386719 324.332031 82.035156 C 324.386719 81.683594 324.4375 81.289062 324.496094 80.964844 C 324.625 80.21875 324.757812 79.394531 324.925781 78.617188 C 325.835938 74.203125 327.273438 69.914062 329.199219 65.839844 C 332.003906 59.914062 335.796875 54.507812 340.417969 49.859375 C 343.464844 46.796875 346.84375 44.078125 350.488281 41.761719 C 351.328125 41.226562 352.179688 40.730469 353.046875 40.265625 C 357.101562 37.976562 361.421875 36.191406 365.910156 34.957031 L 367.613281 34.523438 Z M 323.878906 86.238281 " fill-opacity="0.15" fill-rule="nonzero"/></g><path stroke-linecap="butt" transform="matrix(0.230968, 0, 0, 0.230968, 323.712202, 32.444595)" fill-opacity="1" fill="#fe9e02" fill-rule="nonzero" stroke-linejoin="miter" d="M 91.99878 252.101531 C 91.99878 254.976664 91.99878 257.86871 92.252468 260.52398 C 94.298886 299.067674 110.382718 335.548037 137.493531 363.047839 C 164.604344 390.530727 200.847931 407.155761 239.391626 409.743381 L 241.522607 409.743381 C 244.39774 409.878681 247.137572 409.997069 249.97888 409.997069 C 289.55424 410.047806 327.692033 395.215503 356.849264 368.459854 C 386.006494 341.704205 404.052182 304.970153 407.400866 265.547006 C 407.789855 261.065181 407.992805 256.566444 407.992805 251.983143 C 407.992805 247.399843 407.857505 243.679083 407.502341 239.552422 C 404.576471 202.040393 388.357338 166.811558 361.73699 140.208121 C 335.133553 113.604685 299.887806 97.385553 262.375777 94.459682 C 258.299853 94.138344 254.156279 94.003043 249.97888 94.003043 C 246.427245 94.003043 242.841785 94.003043 239.391626 94.341294 C 238.376873 94.341294 237.395945 94.341294 236.49958 94.57807 C 197.059521 97.926754 160.308557 115.955529 133.552908 145.11276 C 106.780346 174.269991 91.948042 212.407784 91.99878 251.983143 Z M 91.99878 252.101531 " stroke="#997a24" stroke-width="8" stroke-opacity="1" stroke-miterlimit="4"/><path fill="#ffffff" d="M 384.703125 86.726562 C 386.082031 86.726562 387.457031 86.75 388.832031 86.71875 C 390.65625 86.675781 392.175781 87.320312 393.457031 88.5625 C 394.105469 89.1875 394.734375 89.832031 395.390625 90.449219 C 397.558594 92.496094 398.667969 95.011719 398.730469 97.933594 C 398.78125 100.375 398.902344 102.828125 398.648438 105.261719 C 398.050781 110.980469 395.015625 115.039062 389.695312 117.441406 C 387.867188 118.265625 385.925781 118.625 383.898438 118.59375 C 381.570312 118.558594 379.242188 118.585938 376.910156 118.585938 C 370.394531 118.574219 364.445312 114.058594 362.792969 107.882812 C 362.457031 106.621094 362.289062 105.320312 362.292969 104.015625 C 362.292969 101.921875 362.292969 99.828125 362.292969 97.738281 C 362.292969 97.058594 362.332031 97.042969 362.945312 97.359375 C 366.152344 99.023438 369.878906 96.863281 369.898438 93.3125 C 369.914062 90.535156 369.890625 87.757812 369.910156 84.984375 C 369.914062 84.195312 369.644531 83.480469 369.441406 82.746094 C 368.230469 78.347656 367.019531 73.949219 365.808594 69.550781 C 365.476562 68.347656 365.640625 67.242188 366.480469 66.289062 C 367.382812 65.265625 368.550781 64.949219 369.867188 65.242188 C 371.1875 65.535156 372.007812 66.375 372.359375 67.640625 C 373.296875 71.015625 374.21875 74.398438 375.144531 77.777344 C 375.839844 80.316406 376.539062 82.855469 377.238281 85.394531 C 377.308594 85.65625 377.398438 85.921875 377.257812 86.183594 C 376.335938 87.898438 376.785156 89.554688 377.621094 91.109375 C 379.070312 93.808594 381.445312 95.105469 384.542969 95.15625 C 385.664062 95.175781 386.789062 95.191406 387.90625 95.148438 C 388.519531 95.125 388.792969 95.398438 388.949219 95.914062 C 389.070312 96.304688 389.003906 96.511719 388.542969 96.617188 C 386.535156 97.058594 384.679688 97.863281 383.039062 99.078125 C 379.105469 101.988281 376.972656 105.839844 376.789062 110.691406 C 376.789062 110.796875 376.789062 110.898438 376.789062 111.003906 C 376.808594 111.527344 377.054688 111.878906 377.609375 111.929688 C 378.09375 111.972656 378.511719 111.570312 378.515625 111.011719 C 378.53125 110.035156 378.597656 109.0625 378.863281 108.121094 C 380.433594 102.617188 384.042969 99.238281 389.804688 98.128906 C 390.691406 97.960938 390.894531 97.734375 390.875 96.832031 C 390.855469 95.828125 390.515625 94.929688 389.984375 94.082031 C 389.707031 93.640625 389.324219 93.449219 388.777344 93.441406 C 387 93.414062 385.21875 93.582031 383.449219 93.351562 C 380.742188 93 378.546875 90.605469 378.535156 88.046875 C 378.53125 87.109375 378.847656 86.753906 379.8125 86.738281 C 381.445312 86.710938 383.070312 86.730469 384.703125 86.730469 Z M 384.703125 86.726562 " fill-opacity="1" fill-rule="nonzero"/><path fill="#ffffff" d="M 386.324219 75.09375 C 386.324219 78.136719 386.308594 81.179688 386.335938 84.222656 C 386.339844 84.851562 386.132812 85.046875 385.496094 85.035156 C 383.742188 85 381.984375 85.007812 380.226562 85.035156 C 379.667969 85.042969 379.433594 84.890625 379.433594 84.304688 C 379.449219 78.21875 379.433594 72.136719 379.445312 66.050781 C 379.445312 64.589844 380.066406 63.414062 381.460938 62.796875 C 382.714844 62.242188 383.949219 62.398438 385.042969 63.246094 C 385.976562 63.96875 386.316406 64.964844 386.316406 66.09375 C 386.324219 69.09375 386.324219 72.09375 386.324219 75.09375 Z M 386.324219 75.09375 " fill-opacity="1" fill-rule="nonzero"/><path fill="#ffffff" d="M 397.191406 64.34375 C 399.335938 64.335938 401.027344 66.257812 400.539062 68.308594 C 399.9375 70.84375 399.191406 73.347656 398.503906 75.867188 C 397.484375 79.605469 396.460938 83.339844 395.4375 87.078125 C 395.242188 87.785156 395.183594 87.808594 394.675781 87.320312 C 393.226562 85.929688 391.515625 85.121094 389.476562 85.035156 C 388.832031 85.007812 389.015625 84.636719 389.105469 84.3125 C 389.8125 81.714844 390.53125 79.121094 391.242188 76.523438 C 392.101562 73.386719 392.960938 70.25 393.820312 67.109375 C 394.300781 65.359375 395.539062 64.351562 397.191406 64.34375 Z M 397.191406 64.34375 " fill-opacity="1" fill-rule="nonzero"/><path fill="#ffffff" d="M 368.160156 89.140625 C 368.160156 90.527344 368.167969 91.914062 368.160156 93.300781 C 368.144531 94.953125 366.894531 96.199219 365.261719 96.210938 C 363.605469 96.226562 362.316406 95.015625 362.300781 93.363281 C 362.277344 90.546875 362.277344 87.734375 362.300781 84.921875 C 362.320312 83.269531 363.621094 82.078125 365.289062 82.101562 C 366.890625 82.121094 368.140625 83.367188 368.15625 84.980469 C 368.171875 86.367188 368.160156 87.753906 368.160156 89.140625 Z M 368.160156 89.140625 " fill-opacity="1" fill-rule="nonzero"/><path fill="#ffffff" d="M 428.667969 57.800781 C 430.515625 60.492188 432.128906 63.332031 433.5 66.296875 L 366.183594 145.960938 C 365.878906 145.878906 365.570312 145.804688 365.273438 145.714844 C 362.453125 144.890625 359.703125 143.847656 357.046875 142.597656 Z M 428.667969 57.800781 " fill-opacity="0.15" fill-rule="nonzero"/><path fill="#ffffff" d="M 406.652344 38.761719 C 409.671875 40.25 412.554688 42.003906 415.269531 43.996094 L 341.179688 131.648438 C 338.765625 129.304688 336.558594 126.75 334.59375 124.015625 Z M 406.652344 38.761719 " fill-opacity="0.15" fill-rule="nonzero"/><path fill="#ffffff" d="M 398.25 35.425781 C 400.027344 35.972656 401.777344 36.609375 403.484375 37.320312 L 332.640625 121.128906 C 331.644531 119.566406 330.71875 117.964844 329.882812 116.304688 Z M 398.25 35.425781 " fill-opacity="0.15" fill-rule="nonzero"/><path fill="#ffffff" d="M 344.449219 55.929688 L 345.398438 43.429688 L 346.347656 55.929688 L 358.847656 56.886719 L 346.347656 57.835938 L 345.398438 70.339844 L 344.449219 57.835938 L 331.945312 56.886719 Z M 344.449219 55.929688 " fill-opacity="1" fill-rule="nonzero"/><path fill="#ffffff" d="M 354.25 66.191406 L 354.714844 60.132812 L 355.179688 66.191406 L 361.234375 66.652344 L 355.179688 67.109375 L 354.714844 73.175781 L 354.25 67.109375 L 348.195312 66.652344 Z M 354.25 66.191406 " fill-opacity="1" fill-rule="nonzero"/><path fill="#997a24" d="M 332.027344 92.957031 L 344.5 92.957031 L 344.5 93.882812 L 332.027344 93.882812 Z M 332.027344 92.957031 " fill-opacity="1" fill-rule="nonzero"/><path fill="#997a24" d="M 337.570312 86.492188 L 344.730469 86.492188 L 344.730469 87.414062 L 337.570312 87.414062 Z M 337.570312 86.492188 " fill-opacity="1" fill-rule="nonzero"/><path fill="#997a24" d="M 332.257812 93.421875 C 332.257812 93.695312 332.207031 93.960938 332.101562 94.214844 C 331.996094 94.46875 331.84375 94.695312 331.648438 94.890625 C 331.453125 95.085938 331.230469 95.234375 330.976562 95.339844 C 330.71875 95.445312 330.453125 95.5 330.179688 95.5 C 329.902344 95.5 329.636719 95.445312 329.382812 95.339844 C 329.128906 95.234375 328.90625 95.085938 328.710938 94.890625 C 328.515625 94.695312 328.363281 94.46875 328.257812 94.214844 C 328.152344 93.960938 328.101562 93.695312 328.101562 93.421875 C 328.101562 93.144531 328.152344 92.878906 328.257812 92.625 C 328.363281 92.371094 328.515625 92.144531 328.710938 91.949219 C 328.90625 91.753906 329.128906 91.605469 329.382812 91.5 C 329.636719 91.394531 329.902344 91.339844 330.179688 91.339844 C 330.453125 91.339844 330.71875 91.394531 330.976562 91.5 C 331.230469 91.605469 331.453125 91.753906 331.648438 91.949219 C 331.84375 92.144531 331.996094 92.371094 332.101562 92.625 C 332.207031 92.878906 332.257812 93.144531 332.257812 93.421875 Z M 332.257812 93.421875 " fill-opacity="1" fill-rule="nonzero"/><path fill="#997a24" d="M 337.570312 86.953125 C 337.570312 87.230469 337.515625 87.492188 337.410156 87.75 C 337.304688 88.003906 337.15625 88.226562 336.960938 88.421875 C 336.765625 88.617188 336.542969 88.769531 336.285156 88.875 C 336.03125 88.980469 335.765625 89.03125 335.492188 89.03125 C 335.214844 89.03125 334.949219 88.980469 334.695312 88.875 C 334.441406 88.769531 334.214844 88.617188 334.023438 88.421875 C 333.828125 88.226562 333.675781 88.003906 333.570312 87.75 C 333.464844 87.492188 333.414062 87.230469 333.414062 86.953125 C 333.414062 86.675781 333.464844 86.414062 333.570312 86.15625 C 333.675781 85.902344 333.828125 85.679688 334.023438 85.484375 C 334.214844 85.289062 334.441406 85.136719 334.695312 85.03125 C 334.949219 84.925781 335.214844 84.875 335.492188 84.875 C 335.765625 84.875 336.03125 84.925781 336.285156 85.03125 C 336.542969 85.136719 336.765625 85.289062 336.960938 85.484375 C 337.15625 85.679688 337.304688 85.902344 337.410156 86.15625 C 337.515625 86.414062 337.570312 86.675781 337.570312 86.953125 Z M 337.570312 86.953125 " fill-opacity="1" fill-rule="nonzero"/><path fill="#997a24" d="M 430.882812 92.957031 L 418.410156 92.957031 L 418.410156 93.882812 L 430.882812 93.882812 Z M 430.882812 92.957031 " fill-opacity="1" fill-rule="nonzero"/><path fill="#997a24" d="M 425.339844 86.492188 L 418.179688 86.492188 L 418.179688 87.414062 L 425.339844 87.414062 Z M 425.339844 86.492188 " fill-opacity="1" fill-rule="nonzero"/><path fill="#997a24" d="M 430.648438 93.421875 C 430.648438 93.695312 430.703125 93.960938 430.808594 94.214844 C 430.914062 94.46875 431.0625 94.695312 431.257812 94.890625 C 431.453125 95.085938 431.679688 95.234375 431.933594 95.339844 C 432.1875 95.445312 432.453125 95.5 432.730469 95.5 C 433.003906 95.5 433.269531 95.445312 433.523438 95.339844 C 433.777344 95.234375 434.003906 95.085938 434.199219 94.890625 C 434.394531 94.695312 434.542969 94.46875 434.648438 94.214844 C 434.753906 93.960938 434.808594 93.695312 434.808594 93.421875 C 434.808594 93.144531 434.753906 92.878906 434.648438 92.625 C 434.542969 92.371094 434.394531 92.144531 434.199219 91.949219 C 434.003906 91.753906 433.777344 91.605469 433.523438 91.5 C 433.269531 91.394531 433.003906 91.339844 432.730469 91.339844 C 432.453125 91.339844 432.1875 91.394531 431.933594 91.5 C 431.679688 91.605469 431.453125 91.753906 431.257812 91.949219 C 431.0625 92.144531 430.914062 92.371094 430.808594 92.625 C 430.703125 92.878906 430.648438 93.144531 430.648438 93.421875 Z M 430.648438 93.421875 " fill-opacity="1" fill-rule="nonzero"/><path fill="#997a24" d="M 425.339844 86.953125 C 425.339844 87.230469 425.390625 87.492188 425.496094 87.75 C 425.601562 88.003906 425.75 88.226562 425.945312 88.421875 C 426.140625 88.617188 426.367188 88.769531 426.621094 88.875 C 426.875 88.980469 427.140625 89.03125 427.417969 89.03125 C 427.691406 89.03125 427.957031 88.980469 428.210938 88.875 C 428.464844 88.769531 428.691406 88.617188 428.886719 88.421875 C 429.082031 88.226562 429.230469 88.003906 429.335938 87.75 C 429.441406 87.492188 429.496094 87.230469 429.496094 86.953125 C 429.496094 86.675781 429.441406 86.414062 429.335938 86.15625 C 429.230469 85.902344 429.082031 85.679688 428.886719 85.484375 C 428.691406 85.289062 428.464844 85.136719 428.210938 85.03125 C 427.957031 84.925781 427.691406 84.875 427.417969 84.875 C 427.140625 84.875 426.875 84.925781 426.621094 85.03125 C 426.367188 85.136719 426.140625 85.289062 425.945312 85.484375 C 425.75 85.679688 425.601562 85.902344 425.496094 86.15625 C 425.390625 86.414062 425.339844 86.675781 425.339844 86.953125 Z M 425.339844 86.953125 " fill-opacity="1" fill-rule="nonzero"/><path fill="#997a24" d="M 384.226562 140.074219 L 384.226562 127.601562 L 385.148438 127.601562 L 385.148438 140.074219 Z M 384.226562 140.074219 " fill-opacity="1" fill-rule="nonzero"/><path fill="#997a24" d="M 377.757812 134.53125 L 377.757812 127.371094 L 378.683594 127.371094 L 378.683594 134.53125 Z M 377.757812 134.53125 " fill-opacity="1" fill-rule="nonzero"/><path fill="#997a24" d="M 384.6875 139.84375 C 384.964844 139.84375 385.226562 139.898438 385.484375 140.003906 C 385.738281 140.109375 385.960938 140.257812 386.15625 140.453125 C 386.351562 140.648438 386.503906 140.875 386.609375 141.128906 C 386.714844 141.382812 386.765625 141.648438 386.765625 141.921875 C 386.765625 142.199219 386.714844 142.464844 386.609375 142.71875 C 386.503906 142.972656 386.351562 143.199219 386.15625 143.394531 C 385.960938 143.589844 385.738281 143.738281 385.484375 143.84375 C 385.226562 143.949219 384.964844 144 384.6875 144 C 384.410156 144 384.148438 143.949219 383.890625 143.84375 C 383.636719 143.738281 383.414062 143.589844 383.21875 143.394531 C 383.023438 143.199219 382.871094 142.972656 382.765625 142.71875 C 382.660156 142.464844 382.609375 142.199219 382.609375 141.921875 C 382.609375 141.648438 382.660156 141.382812 382.765625 141.128906 C 382.871094 140.875 383.023438 140.648438 383.21875 140.453125 C 383.414062 140.257812 383.636719 140.109375 383.890625 140.003906 C 384.148438 139.898438 384.410156 139.84375 384.6875 139.84375 Z M 384.6875 139.84375 " fill-opacity="1" fill-rule="nonzero"/><path fill="#997a24" d="M 378.21875 134.53125 C 378.496094 134.53125 378.761719 134.585938 379.015625 134.691406 C 379.269531 134.796875 379.496094 134.945312 379.691406 135.140625 C 379.886719 135.335938 380.035156 135.5625 380.140625 135.816406 C 380.246094 136.070312 380.300781 136.335938 380.300781 136.609375 C 380.300781 136.886719 380.246094 137.152344 380.140625 137.40625 C 380.035156 137.660156 379.886719 137.886719 379.691406 138.082031 C 379.496094 138.277344 379.269531 138.425781 379.015625 138.53125 C 378.761719 138.636719 378.496094 138.691406 378.21875 138.691406 C 377.945312 138.691406 377.679688 138.636719 377.425781 138.53125 C 377.171875 138.425781 376.945312 138.277344 376.75 138.082031 C 376.554688 137.886719 376.40625 137.660156 376.300781 137.40625 C 376.195312 137.152344 376.140625 136.886719 376.140625 136.609375 C 376.140625 136.335938 376.195312 136.070312 376.300781 135.816406 C 376.40625 135.5625 376.554688 135.335938 376.75 135.140625 C 376.945312 134.945312 377.171875 134.796875 377.425781 134.691406 C 377.679688 134.585938 377.945312 134.53125 378.21875 134.53125 Z M 378.21875 134.53125 " fill-opacity="1" fill-rule="nonzero"/><path fill="#997a24" d="M 384.226562 41.222656 L 384.226562 53.695312 L 385.148438 53.695312 L 385.148438 41.222656 Z M 384.226562 41.222656 " fill-opacity="1" fill-rule="nonzero"/><path fill="#997a24" d="M 377.757812 46.765625 L 377.757812 53.925781 L 378.683594 53.925781 L 378.683594 46.765625 Z M 377.757812 46.765625 " fill-opacity="1" fill-rule="nonzero"/><path fill="#997a24" d="M 384.6875 41.453125 C 384.964844 41.453125 385.226562 41.398438 385.484375 41.292969 C 385.738281 41.1875 385.960938 41.039062 386.15625 40.84375 C 386.351562 40.648438 386.503906 40.421875 386.609375 40.167969 C 386.714844 39.914062 386.765625 39.648438 386.765625 39.375 C 386.765625 39.097656 386.714844 38.832031 386.609375 38.578125 C 386.503906 38.324219 386.351562 38.097656 386.15625 37.902344 C 385.960938 37.707031 385.738281 37.558594 385.484375 37.453125 C 385.226562 37.347656 384.964844 37.292969 384.6875 37.292969 C 384.410156 37.292969 384.148438 37.347656 383.890625 37.453125 C 383.636719 37.558594 383.414062 37.707031 383.21875 37.902344 C 383.023438 38.097656 382.871094 38.324219 382.765625 38.578125 C 382.660156 38.832031 382.609375 39.097656 382.609375 39.375 C 382.609375 39.648438 382.660156 39.914062 382.765625 40.167969 C 382.871094 40.421875 383.023438 40.648438 383.21875 40.84375 C 383.414062 41.039062 383.636719 41.1875 383.890625 41.292969 C 384.148438 41.398438 384.410156 41.453125 384.6875 41.453125 Z M 384.6875 41.453125 " fill-opacity="1" fill-rule="nonzero"/><path fill="#997a24" d="M 378.21875 46.765625 C 378.496094 46.765625 378.761719 46.710938 379.015625 46.605469 C 379.269531 46.5 379.496094 46.351562 379.691406 46.15625 C 379.886719 45.960938 380.035156 45.734375 380.140625 45.480469 C 380.246094 45.226562 380.300781 44.960938 380.300781 44.6875 C 380.300781 44.410156 380.246094 44.144531 380.140625 43.890625 C 380.035156 43.636719 379.886719 43.410156 379.691406 43.214844 C 379.496094 43.019531 379.269531 42.871094 379.015625 42.765625 C 378.761719 42.660156 378.496094 42.605469 378.21875 42.605469 C 377.945312 42.605469 377.679688 42.660156 377.425781 42.765625 C 377.171875 42.871094 376.945312 43.019531 376.75 43.214844 C 376.554688 43.410156 376.40625 43.636719 376.300781 43.890625 C 376.195312 44.144531 376.140625 44.410156 376.140625 44.6875 C 376.140625 44.960938 376.195312 45.226562 376.300781 45.480469 C 376.40625 45.734375 376.554688 45.960938 376.75 46.15625 C 376.945312 46.351562 377.171875 46.5 377.425781 46.605469 C 377.679688 46.710938 377.945312 46.765625 378.21875 46.765625 Z M 378.21875 46.765625 " fill-opacity="1" fill-rule="nonzero"/></svg>