<svg xmlns="http://www.w3.org/2000/svg" xmlns:xlink="http://www.w3.org/1999/xlink" width="1650" zoomAndPan="magnify" viewBox="0 0 1237.5 187.499995" height="250" preserveAspectRatio="xMidYMid meet" version="1.0"><defs><g/><clipPath id="6664c7878a"><path d="M 1.394531 0 L 1235.605469 0 L 1235.605469 187 L 1.394531 187 Z M 1.394531 0 " clip-rule="nonzero"/></clipPath><clipPath id="9751894fc5"><path d="M 77.351562 3.203125 L 257 3.203125 L 257 183.472656 L 77.351562 183.472656 Z M 77.351562 3.203125 " clip-rule="nonzero"/></clipPath><clipPath id="9a33087cdc"><path d="M 77.351562 3.203125 L 257.621094 3.203125 L 257.621094 183.472656 L 77.351562 183.472656 Z M 77.351562 3.203125 " clip-rule="nonzero"/></clipPath><clipPath id="934308896b"><path d="M 156 68 L 257.621094 68 L 257.621094 183.472656 L 156 183.472656 Z M 156 68 " clip-rule="nonzero"/></clipPath><clipPath id="a365065a4b"><path d="M 77.351562 6 L 146 6 L 146 88 L 77.351562 88 Z M 77.351562 6 " clip-rule="nonzero"/></clipPath></defs><g clip-path="url(#6664c7878a)"><path fill="#ffffff" d="M 1.394531 0 L 1235.605469 0 L 1235.605469 187 L 1.394531 187 Z M 1.394531 0 " fill-opacity="1" fill-rule="nonzero"/><path fill="#ffffff" d="M 1.394531 0 L 1235.605469 0 L 1235.605469 187 L 1.394531 187 Z M 1.394531 0 " fill-opacity="1" fill-rule="nonzero"/></g><g fill="#000000" fill-opacity="1"><g transform="translate(272.919248, 152.14953)"><g><path d="M 60.015625 -121.875 L 85.125 -121.875 L 85.125 -37.5 C 85.125 -29.738281 83.40625 -22.882812 79.96875 -16.9375 C 76.539062 -11 71.703125 -6.410156 65.453125 -3.171875 C 59.203125 0.0546875 52.144531 1.671875 44.28125 1.671875 C 31.382812 1.671875 21.335938 -1.601562 14.140625 -8.15625 C 6.941406 -14.71875 3.34375 -23.992188 3.34375 -35.984375 L 28.625 -35.984375 C 28.625 -30.015625 29.878906 -25.609375 32.390625 -22.765625 C 34.898438 -19.921875 38.863281 -18.5 44.28125 -18.5 C 49.082031 -18.5 52.90625 -20.144531 55.75 -23.4375 C 58.59375 -26.726562 60.015625 -31.414062 60.015625 -37.5 Z M 60.015625 -121.875 "/></g></g></g><g fill="#000000" fill-opacity="1"><g transform="translate(368.667766, 152.14953)"><g><path d="M 61.765625 0 C 60.648438 -2.175781 59.84375 -4.882812 59.34375 -8.125 C 53.488281 -1.59375 45.875 1.671875 36.5 1.671875 C 27.625 1.671875 20.269531 -0.894531 14.4375 -6.03125 C 8.601562 -11.164062 5.6875 -17.640625 5.6875 -25.453125 C 5.6875 -35.046875 9.242188 -42.410156 16.359375 -47.546875 C 23.472656 -52.679688 33.753906 -55.273438 47.203125 -55.328125 L 58.34375 -55.328125 L 58.34375 -60.515625 C 58.34375 -64.703125 57.265625 -68.050781 55.109375 -70.5625 C 52.960938 -73.070312 49.578125 -74.328125 44.953125 -74.328125 C 40.878906 -74.328125 37.679688 -73.347656 35.359375 -71.390625 C 33.046875 -69.441406 31.890625 -66.765625 31.890625 -63.359375 L 7.703125 -63.359375 C 7.703125 -68.609375 9.316406 -73.460938 12.546875 -77.921875 C 15.785156 -82.390625 20.363281 -85.890625 26.28125 -88.421875 C 32.195312 -90.960938 38.835938 -92.234375 46.203125 -92.234375 C 57.359375 -92.234375 66.210938 -89.429688 72.765625 -83.828125 C 79.328125 -78.222656 82.609375 -70.34375 82.609375 -60.1875 L 82.609375 -20.921875 C 82.671875 -12.328125 83.875 -5.828125 86.21875 -1.421875 L 86.21875 0 Z M 41.765625 -16.828125 C 45.335938 -16.828125 48.628906 -17.617188 51.640625 -19.203125 C 54.660156 -20.796875 56.894531 -22.929688 58.34375 -25.609375 L 58.34375 -41.1875 L 49.296875 -41.1875 C 37.191406 -41.1875 30.75 -37 29.96875 -28.625 L 29.875 -27.203125 C 29.875 -24.191406 30.9375 -21.707031 33.0625 -19.75 C 35.1875 -17.800781 38.085938 -16.828125 41.765625 -16.828125 Z M 41.765625 -16.828125 "/></g></g></g><g fill="#000000" fill-opacity="1"><g transform="translate(460.566257, 152.14953)"><g><path d="M 34.8125 0 L 10.546875 0 L 10.546875 -90.5625 L 34.8125 -90.5625 Z M 9.125 -114 C 9.125 -117.625 10.335938 -120.609375 12.765625 -122.953125 C 15.191406 -125.296875 18.5 -126.46875 22.6875 -126.46875 C 26.8125 -126.46875 30.101562 -125.296875 32.5625 -122.953125 C 35.019531 -120.609375 36.25 -117.625 36.25 -114 C 36.25 -110.320312 35.003906 -107.3125 32.515625 -104.96875 C 30.035156 -102.625 26.757812 -101.453125 22.6875 -101.453125 C 18.613281 -101.453125 15.332031 -102.625 12.84375 -104.96875 C 10.363281 -107.3125 9.125 -110.320312 9.125 -114 Z M 9.125 -114 "/></g></g></g><g fill="#000000" fill-opacity="1"><g transform="translate(506.013324, 152.14953)"><g><path d="M 110.0625 0 L 84.953125 0 L 84.953125 -52.234375 L 35.984375 -52.234375 L 35.984375 0 L 10.875 0 L 10.875 -121.875 L 35.984375 -121.875 L 35.984375 -72.484375 L 84.953125 -72.484375 L 84.953125 -121.875 L 110.0625 -121.875 Z M 110.0625 0 "/></g></g></g><g fill="#000000" fill-opacity="1"><g transform="translate(627.121808, 152.14953)"><g><path d="M 5.53125 -46.125 C 5.53125 -55.101562 7.257812 -63.109375 10.71875 -70.140625 C 14.175781 -77.171875 19.15625 -82.609375 25.65625 -86.453125 C 32.15625 -90.304688 39.703125 -92.234375 48.296875 -92.234375 C 60.515625 -92.234375 70.488281 -88.492188 78.21875 -81.015625 C 85.945312 -73.546875 90.257812 -63.394531 91.15625 -50.5625 L 91.3125 -44.359375 C 91.3125 -30.460938 87.429688 -19.316406 79.671875 -10.921875 C 71.921875 -2.523438 61.515625 1.671875 48.453125 1.671875 C 35.398438 1.671875 24.984375 -2.507812 17.203125 -10.875 C 9.421875 -19.25 5.53125 -30.632812 5.53125 -45.03125 Z M 29.71875 -44.359375 C 29.71875 -35.765625 31.332031 -29.191406 34.5625 -24.640625 C 37.800781 -20.097656 42.4375 -17.828125 48.46875 -17.828125 C 54.320312 -17.828125 58.894531 -20.070312 62.1875 -24.5625 C 65.476562 -29.050781 67.125 -36.238281 67.125 -46.125 C 67.125 -54.550781 65.476562 -61.078125 62.1875 -65.703125 C 58.894531 -70.335938 54.265625 -72.65625 48.296875 -72.65625 C 42.378906 -72.65625 37.800781 -70.351562 34.5625 -65.75 C 31.332031 -61.144531 29.71875 -54.015625 29.71875 -44.359375 Z M 29.71875 -44.359375 "/></g></g></g><g fill="#000000" fill-opacity="1"><g transform="translate(724.042073, 152.14953)"><g><path d="M 106.546875 -40.59375 C 105.597656 -27.476562 100.757812 -17.15625 92.03125 -9.625 C 83.300781 -2.09375 71.789062 1.671875 57.5 1.671875 C 41.875 1.671875 29.582031 -3.582031 20.625 -14.09375 C 11.675781 -24.613281 7.203125 -39.054688 7.203125 -57.421875 L 7.203125 -64.875 C 7.203125 -76.59375 9.265625 -86.914062 13.390625 -95.84375 C 17.523438 -104.769531 23.425781 -111.617188 31.09375 -116.390625 C 38.769531 -121.160156 47.6875 -123.546875 57.84375 -123.546875 C 71.90625 -123.546875 83.234375 -119.773438 91.828125 -112.234375 C 100.421875 -104.703125 105.382812 -94.128906 106.71875 -80.515625 L 81.609375 -80.515625 C 80.992188 -88.390625 78.800781 -94.097656 75.03125 -97.640625 C 71.269531 -101.179688 65.539062 -102.953125 57.84375 -102.953125 C 49.46875 -102.953125 43.203125 -99.953125 39.046875 -93.953125 C 34.890625 -87.953125 32.753906 -78.648438 32.640625 -66.046875 L 32.640625 -56.828125 C 32.640625 -43.660156 34.632812 -34.035156 38.625 -27.953125 C 42.613281 -21.867188 48.90625 -18.828125 57.5 -18.828125 C 65.257812 -18.828125 71.050781 -20.597656 74.875 -24.140625 C 78.695312 -27.691406 80.882812 -33.175781 81.4375 -40.59375 Z M 106.546875 -40.59375 "/></g></g></g><g fill="#000000" fill-opacity="1"><g transform="translate(836.195058, 152.14953)"><g><path d="M 32.890625 -80.6875 C 39.304688 -88.382812 47.367188 -92.234375 57.078125 -92.234375 C 76.722656 -92.234375 86.6875 -80.820312 86.96875 -58 L 86.96875 0 L 62.78125 0 L 62.78125 -57.328125 C 62.78125 -62.523438 61.660156 -66.363281 59.421875 -68.84375 C 57.191406 -71.320312 53.484375 -72.5625 48.296875 -72.5625 C 41.210938 -72.5625 36.078125 -69.828125 32.890625 -64.359375 L 32.890625 0 L 8.703125 0 L 8.703125 -128.5625 L 32.890625 -128.5625 Z M 32.890625 -80.6875 "/></g></g></g><g fill="#000000" fill-opacity="1"><g transform="translate(932.110969, 152.14953)"><g><path d="M 61.765625 0 C 60.648438 -2.175781 59.84375 -4.882812 59.34375 -8.125 C 53.488281 -1.59375 45.875 1.671875 36.5 1.671875 C 27.625 1.671875 20.269531 -0.894531 14.4375 -6.03125 C 8.601562 -11.164062 5.6875 -17.640625 5.6875 -25.453125 C 5.6875 -35.046875 9.242188 -42.410156 16.359375 -47.546875 C 23.472656 -52.679688 33.753906 -55.273438 47.203125 -55.328125 L 58.34375 -55.328125 L 58.34375 -60.515625 C 58.34375 -64.703125 57.265625 -68.050781 55.109375 -70.5625 C 52.960938 -73.070312 49.578125 -74.328125 44.953125 -74.328125 C 40.878906 -74.328125 37.679688 -73.347656 35.359375 -71.390625 C 33.046875 -69.441406 31.890625 -66.765625 31.890625 -63.359375 L 7.703125 -63.359375 C 7.703125 -68.609375 9.316406 -73.460938 12.546875 -77.921875 C 15.785156 -82.390625 20.363281 -85.890625 26.28125 -88.421875 C 32.195312 -90.960938 38.835938 -92.234375 46.203125 -92.234375 C 57.359375 -92.234375 66.210938 -89.429688 72.765625 -83.828125 C 79.328125 -78.222656 82.609375 -70.34375 82.609375 -60.1875 L 82.609375 -20.921875 C 82.671875 -12.328125 83.875 -5.828125 86.21875 -1.421875 L 86.21875 0 Z M 41.765625 -16.828125 C 45.335938 -16.828125 48.628906 -17.617188 51.640625 -19.203125 C 54.660156 -20.796875 56.894531 -22.929688 58.34375 -25.609375 L 58.34375 -41.1875 L 49.296875 -41.1875 C 37.191406 -41.1875 30.75 -37 29.96875 -28.625 L 29.875 -27.203125 C 29.875 -24.191406 30.9375 -21.707031 33.0625 -19.75 C 35.1875 -17.800781 38.085938 -16.828125 41.765625 -16.828125 Z M 41.765625 -16.828125 "/></g></g></g><g fill="#000000" fill-opacity="1"><g transform="translate(1024.009503, 152.14953)"><g><path d="M 34.8125 0 L 10.546875 0 L 10.546875 -90.5625 L 34.8125 -90.5625 Z M 9.125 -114 C 9.125 -117.625 10.335938 -120.609375 12.765625 -122.953125 C 15.191406 -125.296875 18.5 -126.46875 22.6875 -126.46875 C 26.8125 -126.46875 30.101562 -125.296875 32.5625 -122.953125 C 35.019531 -120.609375 36.25 -117.625 36.25 -114 C 36.25 -110.320312 35.003906 -107.3125 32.515625 -104.96875 C 30.035156 -102.625 26.757812 -101.453125 22.6875 -101.453125 C 18.613281 -101.453125 15.332031 -102.625 12.84375 -104.96875 C 10.363281 -107.3125 9.125 -110.320312 9.125 -114 Z M 9.125 -114 "/></g></g></g><g fill="#000000" fill-opacity="1"><g transform="translate(1069.456593, 152.14953)"><g><path d="M 31.5625 -90.5625 L 32.3125 -80.109375 C 38.78125 -88.191406 47.457031 -92.234375 58.34375 -92.234375 C 67.9375 -92.234375 75.078125 -89.414062 79.765625 -83.78125 C 84.453125 -78.144531 86.851562 -69.71875 86.96875 -58.5 L 86.96875 0 L 62.78125 0 L 62.78125 -57.921875 C 62.78125 -63.054688 61.660156 -66.78125 59.421875 -69.09375 C 57.191406 -71.40625 53.484375 -72.5625 48.296875 -72.5625 C 41.484375 -72.5625 36.378906 -69.660156 32.984375 -63.859375 L 32.984375 0 L 8.78125 0 L 8.78125 -90.5625 Z M 31.5625 -90.5625 "/></g></g></g><g clip-path="url(#9751894fc5)"><path fill="#ffc727" d="M 77.355469 93.28125 C 77.339844 97.222656 77.582031 101.160156 78.078125 105.070312 C 78.652344 109.648438 79.585938 114.175781 80.867188 118.609375 C 85.09375 133.179688 92.933594 146.445312 103.664062 157.171875 C 114.390625 167.898438 127.660156 175.738281 142.230469 179.960938 C 146.660156 181.242188 151.183594 182.179688 155.757812 182.761719 C 165.683594 184.011719 175.746094 183.617188 185.546875 181.59375 C 192.4375 180.164062 199.132812 177.917969 205.492188 174.90625 C 220.90625 167.59375 233.933594 156.074219 243.078125 141.675781 C 243.910156 140.367188 244.691406 139.035156 245.414062 137.683594 C 248.992188 131.359375 251.773438 124.621094 253.699219 117.617188 C 254.367188 115.28125 254.925781 112.832031 255.394531 110.390625 C 255.859375 107.953125 256.210938 105.441406 256.46875 102.910156 C 256.769531 100.003906 256.921875 97.074219 256.945312 94.0625 C 256.960938 90.457031 256.757812 86.855469 256.339844 83.277344 C 256.058594 80.800781 255.683594 78.363281 255.171875 75.957031 C 251.671875 58.609375 243.132812 42.683594 230.621094 30.171875 C 218.109375 17.65625 202.179688 9.117188 184.832031 5.621094 C 182.414062 5.128906 179.96875 4.738281 177.503906 4.453125 C 174.179688 4.066406 170.835938 3.867188 167.488281 3.855469 C 164.28125 3.835938 161.074219 3.992188 157.882812 4.324219 C 155.359375 4.582031 152.851562 4.941406 150.398438 5.410156 C 147.949219 5.875 145.53125 6.425781 143.164062 7.078125 C 136.15625 9.007812 129.414062 11.792969 123.085938 15.367188 C 121.734375 16.144531 120.402344 16.921875 119.09375 17.699219 C 113.402344 21.320312 108.128906 25.558594 103.371094 30.339844 C 96.15625 37.597656 90.238281 46.035156 85.863281 55.285156 C 82.855469 61.648438 80.613281 68.34375 79.1875 75.234375 C 77.972656 81.171875 77.359375 87.21875 77.355469 93.28125 Z M 77.355469 93.28125 " fill-opacity="1" fill-rule="nonzero"/></g><g clip-path="url(#9a33087cdc)"><path fill="#ffffff" d="M 77.355469 93.675781 C 77.339844 97.628906 77.582031 101.582031 78.082031 105.507812 C 78.65625 110.101562 79.59375 114.644531 80.878906 119.09375 C 85.121094 133.71875 92.992188 147.03125 103.761719 157.796875 C 114.53125 168.5625 127.847656 176.429688 142.472656 180.667969 C 146.921875 181.957031 151.460938 182.894531 156.054688 183.480469 C 166.015625 184.734375 176.117188 184.335938 185.953125 182.308594 C 192.871094 180.875 199.59375 178.621094 205.976562 175.59375 C 221.445312 168.257812 234.523438 156.695312 243.703125 142.242188 C 244.539062 140.933594 245.320312 139.597656 246.046875 138.238281 C 249.636719 131.890625 252.429688 125.128906 254.363281 118.101562 C 255.03125 115.757812 255.59375 113.296875 256.0625 110.847656 C 256.53125 108.398438 256.882812 105.882812 257.140625 103.339844 C 257.445312 100.421875 257.597656 97.480469 257.621094 94.460938 C 257.636719 90.84375 257.433594 87.226562 257.011719 83.632812 C 256.730469 81.152344 256.355469 78.703125 255.839844 76.289062 C 252.328125 58.878906 243.757812 42.894531 231.199219 30.335938 C 218.636719 17.777344 202.648438 9.207031 185.238281 5.695312 C 182.808594 5.203125 180.355469 4.8125 177.878906 4.523438 C 174.542969 4.136719 171.1875 3.9375 167.828125 3.925781 C 164.605469 3.90625 161.386719 4.0625 158.183594 4.394531 C 155.65625 4.652344 153.136719 5.015625 150.675781 5.484375 C 148.214844 5.953125 145.789062 6.503906 143.410156 7.160156 C 136.378906 9.097656 129.609375 11.890625 123.257812 15.476562 C 121.898438 16.257812 120.5625 17.039062 119.25 17.820312 C 113.539062 21.453125 108.246094 25.710938 103.46875 30.507812 C 96.230469 37.792969 90.285156 46.257812 85.894531 55.542969 C 82.875 61.925781 80.625 68.648438 79.195312 75.5625 C 77.976562 81.523438 77.359375 87.589844 77.355469 93.675781 Z M 77.355469 93.675781 " fill-opacity="0.1" fill-rule="nonzero"/></g><g clip-path="url(#934308896b)"><path fill="#000000" d="M 253.457031 68.734375 C 254.148438 71.066406 254.738281 73.472656 255.230469 75.945312 C 255.71875 78.351562 256.09375 80.789062 256.398438 83.265625 C 256.816406 86.84375 257.019531 90.445312 257.003906 94.050781 C 257.003906 97.039062 256.828125 99.992188 256.527344 102.898438 C 256.269531 105.429688 255.90625 107.917969 255.453125 110.378906 C 254.996094 112.84375 254.425781 115.234375 253.757812 117.605469 C 251.835938 124.609375 249.058594 131.347656 245.484375 137.671875 C 244.707031 139.023438 243.925781 140.355469 243.148438 141.664062 C 234.003906 156.0625 220.972656 167.582031 205.5625 174.894531 C 199.179688 177.910156 192.460938 180.152344 185.546875 181.570312 C 176.15625 183.527344 166.511719 183.960938 156.984375 182.855469 Z M 253.457031 68.734375 " fill-opacity="0.05" fill-rule="nonzero"/></g><g clip-path="url(#a365065a4b)"><path fill="#ffffff" d="M 77.609375 87.175781 C 77.726562 85.515625 77.902344 83.882812 78.101562 82.25 C 78.171875 81.699219 78.242188 81.164062 78.324219 80.613281 C 78.40625 80.066406 78.484375 79.449219 78.578125 78.945312 C 78.777344 77.777344 78.988281 76.496094 79.246094 75.28125 C 80.671875 68.390625 82.914062 61.695312 85.921875 55.332031 C 90.296875 46.082031 96.214844 37.644531 103.429688 30.386719 C 108.1875 25.605469 113.460938 21.367188 119.152344 17.746094 C 120.460938 16.914062 121.789062 16.136719 123.144531 15.414062 C 129.472656 11.839844 136.214844 9.054688 143.222656 7.125 L 145.882812 6.449219 Z M 77.609375 87.175781 " fill-opacity="0.15" fill-rule="nonzero"/></g><path stroke-linecap="butt" transform="matrix(0.360539, 0, 0, 0.360539, 77.353402, 3.204687)" fill-opacity="1" fill="#fe9e02" fill-rule="nonzero" stroke-linejoin="miter" d="M 92.00135 252.103316 C 92.00135 254.985289 92.00135 257.867262 92.261378 260.521711 C 94.298261 299.070811 110.387473 335.550525 137.495356 363.037615 C 164.603239 390.53554 200.855428 407.144806 239.382859 409.745083 L 241.517253 409.745083 C 244.399226 409.885931 247.140351 410.00511 249.968152 410.00511 C 289.546528 410.037614 327.694752 395.216037 356.861187 368.454858 C 386.016788 341.693678 404.056207 304.964772 407.393229 265.538078 C 407.794105 261.07427 407.99996 256.567124 407.99996 251.984137 C 407.99996 247.401149 407.859112 243.684921 407.512408 239.556982 C 404.587097 202.047992 388.357037 166.814245 361.74754 140.215582 C 335.138044 113.61692 299.893462 97.38686 262.373638 94.461549 C 258.310706 94.147349 254.150263 93.995666 249.968152 93.995666 C 246.425275 93.995666 242.849895 93.995666 239.382859 94.34237 C 238.375252 94.34237 237.389314 94.34237 236.500886 94.580729 C 197.052524 97.91775 160.312783 115.957169 133.540768 145.11277 C 106.779589 174.268371 91.958012 212.416595 92.00135 251.984137 Z M 92.00135 252.103316 " stroke="#997a24" stroke-width="8" stroke-opacity="1" stroke-miterlimit="4"/><path fill="#ffffff" d="M 172.5625 87.9375 C 174.710938 87.9375 176.855469 87.976562 179.003906 87.925781 C 181.851562 87.863281 184.226562 88.867188 186.226562 90.804688 C 187.234375 91.78125 188.21875 92.785156 189.242188 93.75 C 192.625 96.945312 194.359375 100.871094 194.457031 105.433594 C 194.535156 109.246094 194.726562 113.074219 194.328125 116.871094 C 193.394531 125.800781 188.660156 132.132812 180.351562 135.882812 C 177.496094 137.171875 174.464844 137.734375 171.300781 137.683594 C 167.667969 137.628906 164.03125 137.671875 160.398438 137.667969 C 150.222656 137.652344 140.933594 130.605469 138.359375 120.964844 C 137.835938 118.992188 137.570312 116.964844 137.578125 114.925781 C 137.578125 111.660156 137.578125 108.390625 137.578125 105.125 C 137.578125 104.066406 137.640625 104.039062 138.597656 104.535156 C 143.601562 107.136719 149.417969 103.761719 149.449219 98.214844 C 149.476562 93.882812 149.4375 89.550781 149.46875 85.21875 C 149.476562 83.988281 149.054688 82.871094 148.738281 81.722656 C 146.847656 74.859375 144.957031 67.992188 143.066406 61.125 C 142.546875 59.25 142.804688 57.523438 144.117188 56.03125 C 145.523438 54.4375 147.34375 53.945312 149.402344 54.402344 C 151.460938 54.859375 152.742188 56.171875 153.289062 58.144531 C 154.753906 63.414062 156.191406 68.691406 157.640625 73.96875 C 158.726562 77.929688 159.816406 81.894531 160.90625 85.863281 C 161.015625 86.269531 161.15625 86.679688 160.9375 87.089844 C 159.496094 89.765625 160.203125 92.351562 161.503906 94.777344 C 163.765625 98.992188 167.472656 101.019531 172.308594 101.097656 C 174.058594 101.128906 175.8125 101.15625 177.5625 101.085938 C 178.515625 101.046875 178.945312 101.472656 179.191406 102.277344 C 179.378906 102.886719 179.277344 103.214844 178.550781 103.375 C 175.417969 104.066406 172.527344 105.324219 169.960938 107.21875 C 163.820312 111.761719 160.492188 117.777344 160.207031 125.347656 C 160.207031 125.507812 160.207031 125.671875 160.207031 125.832031 C 160.234375 126.652344 160.617188 127.203125 161.488281 127.277344 C 162.246094 127.34375 162.894531 126.71875 162.902344 125.847656 C 162.929688 124.320312 163.03125 122.804688 163.445312 121.335938 C 165.898438 112.742188 171.527344 107.46875 180.523438 105.738281 C 181.90625 105.472656 182.222656 105.117188 182.195312 103.710938 C 182.160156 102.148438 181.632812 100.742188 180.804688 99.421875 C 180.375 98.726562 179.773438 98.433594 178.917969 98.421875 C 176.144531 98.378906 173.363281 98.636719 170.601562 98.28125 C 166.378906 97.730469 162.949219 93.992188 162.929688 90 C 162.921875 88.539062 163.417969 87.980469 164.925781 87.957031 C 167.472656 87.914062 170.011719 87.945312 172.5625 87.945312 Z M 172.5625 87.9375 " fill-opacity="1" fill-rule="nonzero"/><path fill="#ffffff" d="M 175.085938 69.78125 C 175.085938 74.53125 175.0625 79.28125 175.105469 84.027344 C 175.117188 85.011719 174.792969 85.316406 173.800781 85.300781 C 171.058594 85.246094 168.320312 85.253906 165.574219 85.300781 C 164.699219 85.3125 164.332031 85.070312 164.335938 84.15625 C 164.355469 74.660156 164.335938 65.164062 164.355469 55.664062 C 164.355469 53.378906 165.320312 51.546875 167.5 50.582031 C 169.457031 49.714844 171.382812 49.964844 173.089844 51.285156 C 174.550781 52.414062 175.078125 53.972656 175.082031 55.734375 C 175.089844 60.414062 175.089844 65.097656 175.085938 69.78125 Z M 175.085938 69.78125 " fill-opacity="1" fill-rule="nonzero"/><path fill="#ffffff" d="M 192.054688 53 C 195.402344 52.984375 198.042969 55.984375 197.28125 59.1875 C 196.339844 63.144531 195.171875 67.054688 194.101562 70.984375 C 192.507812 76.820312 190.914062 82.652344 189.316406 88.488281 C 189.011719 89.59375 188.917969 89.628906 188.125 88.867188 C 185.867188 86.695312 183.191406 85.429688 180.007812 85.296875 C 179.003906 85.253906 179.292969 84.679688 179.429688 84.171875 C 180.535156 80.117188 181.65625 76.0625 182.769531 72.011719 C 184.113281 67.113281 185.453125 62.214844 186.789062 57.320312 C 187.542969 54.582031 189.476562 53.015625 192.054688 53 Z M 192.054688 53 " fill-opacity="1" fill-rule="nonzero"/><path fill="#ffffff" d="M 146.734375 91.707031 C 146.734375 93.871094 146.75 96.035156 146.734375 98.199219 C 146.714844 100.777344 144.761719 102.726562 142.210938 102.746094 C 139.625 102.765625 137.617188 100.878906 137.59375 98.296875 C 137.554688 93.90625 137.554688 89.511719 137.59375 85.117188 C 137.621094 82.542969 139.648438 80.683594 142.253906 80.71875 C 144.753906 80.75 146.707031 82.691406 146.730469 85.210938 C 146.753906 87.378906 146.734375 89.542969 146.734375 91.707031 Z M 146.734375 91.707031 " fill-opacity="1" fill-rule="nonzero"/><path fill="#ffffff" d="M 241.1875 42.785156 C 244.070312 46.984375 246.59375 51.421875 248.730469 56.042969 L 143.652344 180.402344 C 143.175781 180.273438 142.695312 180.160156 142.230469 180.019531 C 137.832031 178.730469 133.539062 177.101562 129.390625 175.152344 Z M 241.1875 42.785156 " fill-opacity="0.15" fill-rule="nonzero"/><path fill="#ffffff" d="M 206.824219 13.066406 C 211.539062 15.390625 216.035156 18.125 220.269531 21.238281 L 104.621094 158.0625 C 100.847656 154.398438 97.40625 150.410156 94.335938 146.144531 Z M 206.824219 13.066406 " fill-opacity="0.15" fill-rule="nonzero"/><path fill="#ffffff" d="M 193.703125 7.859375 C 196.484375 8.710938 199.214844 9.703125 201.875 10.8125 L 91.289062 141.640625 C 89.738281 139.199219 88.292969 136.703125 86.984375 134.109375 Z M 193.703125 7.859375 " fill-opacity="0.15" fill-rule="nonzero"/><path fill="#ffffff" d="M 109.722656 39.867188 L 111.203125 20.351562 L 112.6875 39.867188 L 132.203125 41.359375 L 112.6875 42.84375 L 111.203125 62.359375 L 109.722656 42.84375 L 90.207031 41.359375 Z M 109.722656 39.867188 " fill-opacity="1" fill-rule="nonzero"/><path fill="#ffffff" d="M 125.023438 55.878906 L 125.746094 46.425781 L 126.472656 55.878906 L 135.925781 56.605469 L 126.472656 57.316406 L 125.746094 66.78125 L 125.023438 57.316406 L 115.570312 56.605469 Z M 125.023438 55.878906 " fill-opacity="1" fill-rule="nonzero"/><path fill="#997a24" d="M 90.332031 97.664062 L 109.800781 97.664062 L 109.800781 99.109375 L 90.332031 99.109375 Z M 90.332031 97.664062 " fill-opacity="1" fill-rule="nonzero"/><path fill="#997a24" d="M 98.984375 87.570312 L 110.164062 87.570312 L 110.164062 89.011719 L 98.984375 89.011719 Z M 98.984375 87.570312 " fill-opacity="1" fill-rule="nonzero"/><path fill="#997a24" d="M 90.691406 98.386719 C 90.691406 98.816406 90.609375 99.230469 90.445312 99.628906 C 90.28125 100.027344 90.046875 100.378906 89.742188 100.679688 C 89.4375 100.984375 89.085938 101.21875 88.691406 101.382812 C 88.292969 101.550781 87.878906 101.632812 87.449219 101.632812 C 87.019531 101.632812 86.605469 101.550781 86.207031 101.382812 C 85.808594 101.21875 85.457031 100.984375 85.152344 100.679688 C 84.851562 100.378906 84.617188 100.027344 84.449219 99.628906 C 84.285156 99.230469 84.203125 98.816406 84.203125 98.386719 C 84.203125 97.957031 84.285156 97.542969 84.449219 97.144531 C 84.617188 96.746094 84.851562 96.398438 85.152344 96.09375 C 85.457031 95.789062 85.808594 95.554688 86.207031 95.390625 C 86.605469 95.222656 87.019531 95.140625 87.449219 95.140625 C 87.878906 95.140625 88.292969 95.222656 88.691406 95.390625 C 89.085938 95.554688 89.4375 95.789062 89.742188 96.09375 C 90.046875 96.398438 90.28125 96.746094 90.445312 97.144531 C 90.609375 97.542969 90.691406 97.957031 90.691406 98.386719 Z M 90.691406 98.386719 " fill-opacity="1" fill-rule="nonzero"/><path fill="#997a24" d="M 98.984375 88.292969 C 98.984375 88.722656 98.902344 89.136719 98.738281 89.535156 C 98.574219 89.929688 98.339844 90.28125 98.035156 90.585938 C 97.730469 90.890625 97.378906 91.125 96.984375 91.289062 C 96.585938 91.453125 96.171875 91.535156 95.742188 91.535156 C 95.3125 91.535156 94.898438 91.453125 94.5 91.289062 C 94.101562 91.125 93.75 90.890625 93.445312 90.585938 C 93.140625 90.28125 92.90625 89.929688 92.742188 89.535156 C 92.578125 89.136719 92.496094 88.722656 92.496094 88.292969 C 92.496094 87.863281 92.578125 87.449219 92.742188 87.050781 C 92.90625 86.652344 93.140625 86.300781 93.445312 85.996094 C 93.75 85.691406 94.101562 85.457031 94.5 85.292969 C 94.898438 85.128906 95.3125 85.046875 95.742188 85.046875 C 96.171875 85.046875 96.585938 85.128906 96.984375 85.292969 C 97.378906 85.457031 97.730469 85.691406 98.035156 85.996094 C 98.339844 86.300781 98.574219 86.652344 98.738281 87.050781 C 98.902344 87.449219 98.984375 87.863281 98.984375 88.292969 Z M 98.984375 88.292969 " fill-opacity="1" fill-rule="nonzero"/><path fill="#997a24" d="M 244.644531 97.664062 L 225.175781 97.664062 L 225.175781 99.109375 L 244.644531 99.109375 Z M 244.644531 97.664062 " fill-opacity="1" fill-rule="nonzero"/><path fill="#997a24" d="M 235.992188 87.570312 L 224.8125 87.570312 L 224.8125 89.011719 L 235.992188 89.011719 Z M 235.992188 87.570312 " fill-opacity="1" fill-rule="nonzero"/><path fill="#997a24" d="M 244.28125 98.386719 C 244.28125 98.816406 244.363281 99.230469 244.53125 99.628906 C 244.695312 100.027344 244.929688 100.378906 245.234375 100.679688 C 245.539062 100.984375 245.886719 101.21875 246.285156 101.382812 C 246.683594 101.550781 247.097656 101.632812 247.527344 101.632812 C 247.957031 101.632812 248.371094 101.550781 248.769531 101.382812 C 249.167969 101.21875 249.519531 100.984375 249.820312 100.679688 C 250.125 100.378906 250.359375 100.027344 250.527344 99.628906 C 250.691406 99.230469 250.773438 98.816406 250.773438 98.386719 C 250.773438 97.957031 250.691406 97.542969 250.527344 97.144531 C 250.359375 96.746094 250.125 96.398438 249.820312 96.09375 C 249.519531 95.789062 249.167969 95.554688 248.769531 95.390625 C 248.371094 95.222656 247.957031 95.140625 247.527344 95.140625 C 247.097656 95.140625 246.683594 95.222656 246.285156 95.390625 C 245.886719 95.554688 245.539062 95.789062 245.234375 96.09375 C 244.929688 96.398438 244.695312 96.746094 244.53125 97.144531 C 244.363281 97.542969 244.28125 97.957031 244.28125 98.386719 Z M 244.28125 98.386719 " fill-opacity="1" fill-rule="nonzero"/><path fill="#997a24" d="M 235.992188 88.292969 C 235.992188 88.722656 236.074219 89.136719 236.238281 89.535156 C 236.402344 89.929688 236.636719 90.28125 236.941406 90.585938 C 237.246094 90.890625 237.597656 91.125 237.992188 91.289062 C 238.390625 91.453125 238.804688 91.535156 239.234375 91.535156 C 239.664062 91.535156 240.078125 91.453125 240.476562 91.289062 C 240.875 91.125 241.226562 90.890625 241.53125 90.585938 C 241.832031 90.28125 242.070312 89.929688 242.234375 89.535156 C 242.398438 89.136719 242.480469 88.722656 242.480469 88.292969 C 242.480469 87.863281 242.398438 87.449219 242.234375 87.050781 C 242.070312 86.652344 241.832031 86.300781 241.53125 85.996094 C 241.226562 85.691406 240.875 85.457031 240.476562 85.292969 C 240.078125 85.128906 239.664062 85.046875 239.234375 85.046875 C 238.804688 85.046875 238.390625 85.128906 237.992188 85.292969 C 237.597656 85.457031 237.246094 85.691406 236.941406 85.996094 C 236.636719 86.300781 236.402344 86.652344 236.238281 87.050781 C 236.074219 87.449219 235.992188 87.863281 235.992188 88.292969 Z M 235.992188 88.292969 " fill-opacity="1" fill-rule="nonzero"/><path fill="#997a24" d="M 171.816406 171.214844 L 171.816406 151.746094 L 173.257812 151.746094 L 173.257812 171.214844 Z M 171.816406 171.214844 " fill-opacity="1" fill-rule="nonzero"/><path fill="#997a24" d="M 161.71875 162.5625 L 161.71875 151.386719 L 163.160156 151.386719 L 163.160156 162.5625 Z M 161.71875 162.5625 " fill-opacity="1" fill-rule="nonzero"/><path fill="#997a24" d="M 172.535156 170.855469 C 172.964844 170.855469 173.378906 170.9375 173.777344 171.101562 C 174.175781 171.265625 174.527344 171.5 174.828125 171.804688 C 175.132812 172.109375 175.367188 172.460938 175.535156 172.859375 C 175.699219 173.253906 175.78125 173.667969 175.78125 174.101562 C 175.78125 174.53125 175.699219 174.945312 175.535156 175.339844 C 175.367188 175.738281 175.132812 176.089844 174.828125 176.394531 C 174.527344 176.699219 174.175781 176.933594 173.777344 177.097656 C 173.378906 177.261719 172.964844 177.34375 172.535156 177.34375 C 172.105469 177.34375 171.691406 177.261719 171.292969 177.097656 C 170.894531 176.933594 170.546875 176.699219 170.242188 176.394531 C 169.9375 176.089844 169.703125 175.738281 169.539062 175.339844 C 169.375 174.945312 169.289062 174.53125 169.289062 174.101562 C 169.289062 173.667969 169.375 173.253906 169.539062 172.859375 C 169.703125 172.460938 169.9375 172.109375 170.242188 171.804688 C 170.546875 171.5 170.894531 171.265625 171.292969 171.101562 C 171.691406 170.9375 172.105469 170.855469 172.535156 170.855469 Z M 172.535156 170.855469 " fill-opacity="1" fill-rule="nonzero"/><path fill="#997a24" d="M 162.441406 162.5625 C 162.871094 162.5625 163.285156 162.644531 163.683594 162.808594 C 164.078125 162.972656 164.429688 163.207031 164.734375 163.511719 C 165.039062 163.816406 165.273438 164.167969 165.4375 164.566406 C 165.601562 164.964844 165.683594 165.378906 165.683594 165.808594 C 165.683594 166.238281 165.601562 166.652344 165.4375 167.050781 C 165.273438 167.445312 165.039062 167.796875 164.734375 168.101562 C 164.429688 168.40625 164.078125 168.640625 163.683594 168.804688 C 163.285156 168.96875 162.871094 169.050781 162.441406 169.050781 C 162.011719 169.050781 161.597656 168.96875 161.199219 168.804688 C 160.800781 168.640625 160.449219 168.40625 160.144531 168.101562 C 159.839844 167.796875 159.605469 167.445312 159.441406 167.050781 C 159.277344 166.652344 159.195312 166.238281 159.195312 165.808594 C 159.195312 165.378906 159.277344 164.964844 159.441406 164.566406 C 159.605469 164.167969 159.839844 163.816406 160.144531 163.511719 C 160.449219 163.207031 160.800781 162.972656 161.199219 162.808594 C 161.597656 162.644531 162.011719 162.5625 162.441406 162.5625 Z M 162.441406 162.5625 " fill-opacity="1" fill-rule="nonzero"/><path fill="#997a24" d="M 171.816406 16.90625 L 171.816406 36.375 L 173.257812 36.375 L 173.257812 16.90625 Z M 171.816406 16.90625 " fill-opacity="1" fill-rule="nonzero"/><path fill="#997a24" d="M 161.71875 25.558594 L 161.71875 36.734375 L 163.160156 36.734375 L 163.160156 25.558594 Z M 161.71875 25.558594 " fill-opacity="1" fill-rule="nonzero"/><path fill="#997a24" d="M 172.535156 17.265625 C 172.964844 17.265625 173.378906 17.183594 173.777344 17.019531 C 174.175781 16.855469 174.527344 16.621094 174.828125 16.316406 C 175.132812 16.011719 175.367188 15.660156 175.535156 15.261719 C 175.699219 14.863281 175.78125 14.449219 175.78125 14.019531 C 175.78125 13.589844 175.699219 13.175781 175.535156 12.777344 C 175.367188 12.382812 175.132812 12.03125 174.828125 11.726562 C 174.527344 11.421875 174.175781 11.1875 173.777344 11.023438 C 173.378906 10.859375 172.964844 10.777344 172.535156 10.777344 C 172.105469 10.777344 171.691406 10.859375 171.292969 11.023438 C 170.894531 11.1875 170.546875 11.421875 170.242188 11.726562 C 169.9375 12.03125 169.703125 12.382812 169.539062 12.777344 C 169.375 13.175781 169.289062 13.589844 169.289062 14.019531 C 169.289062 14.449219 169.375 14.863281 169.539062 15.261719 C 169.703125 15.660156 169.9375 16.011719 170.242188 16.316406 C 170.546875 16.621094 170.894531 16.855469 171.292969 17.019531 C 171.691406 17.183594 172.105469 17.265625 172.535156 17.265625 Z M 172.535156 17.265625 " fill-opacity="1" fill-rule="nonzero"/><path fill="#997a24" d="M 162.441406 25.558594 C 162.871094 25.558594 163.285156 25.476562 163.683594 25.3125 C 164.078125 25.144531 164.429688 24.910156 164.734375 24.609375 C 165.039062 24.304688 165.273438 23.953125 165.4375 23.554688 C 165.601562 23.15625 165.683594 22.742188 165.683594 22.3125 C 165.683594 21.882812 165.601562 21.46875 165.4375 21.070312 C 165.273438 20.675781 165.039062 20.324219 164.734375 20.019531 C 164.429688 19.714844 164.078125 19.480469 163.683594 19.316406 C 163.285156 19.152344 162.871094 19.070312 162.441406 19.070312 C 162.011719 19.070312 161.597656 19.152344 161.199219 19.316406 C 160.800781 19.480469 160.449219 19.714844 160.144531 20.019531 C 159.839844 20.324219 159.605469 20.675781 159.441406 21.070312 C 159.277344 21.46875 159.195312 21.882812 159.195312 22.3125 C 159.195312 22.742188 159.277344 23.15625 159.441406 23.554688 C 159.605469 23.953125 159.839844 24.304688 160.144531 24.609375 C 160.449219 24.910156 160.800781 25.144531 161.199219 25.3125 C 161.597656 25.476562 162.011719 25.558594 162.441406 25.558594 Z M 162.441406 25.558594 " fill-opacity="1" fill-rule="nonzero"/></svg>