<svg xmlns="http://www.w3.org/2000/svg" xmlns:xlink="http://www.w3.org/1999/xlink" width="900" zoomAndPan="magnify" viewBox="0 0 675 149.999998" height="200" preserveAspectRatio="xMidYMid meet" version="1.0"><defs><g/><clipPath id="65cd3e05da"><path d="M 3.75 3 L 144 3 L 144 143.25 L 3.75 143.25 Z M 3.75 3 " clip-rule="nonzero"/></clipPath><clipPath id="1d6cdd2bfe"><path d="M 65 53 L 144 53 L 144 143.25 L 65 143.25 Z M 65 53 " clip-rule="nonzero"/></clipPath><clipPath id="1abd159c41"><path d="M 3.75 5 L 58 5 L 58 69 L 3.75 69 Z M 3.75 5 " clip-rule="nonzero"/></clipPath></defs><rect x="-67.5" width="810" fill="#ffffff" y="-15" height="179.999997" fill-opacity="1"/><rect x="-67.5" width="810" fill="#ffffff" y="-15" height="179.999997" fill-opacity="1"/><g fill="#000000" fill-opacity="1"><g transform="translate(153.060763, 106.847624)"><g><path d="M 35.03125 -71.15625 L 49.703125 -71.15625 L 49.703125 -21.890625 C 49.703125 -17.359375 48.695312 -13.359375 46.6875 -9.890625 C 44.6875 -6.421875 41.859375 -3.738281 38.203125 -1.84375 C 34.554688 0.0390625 30.4375 0.984375 25.84375 0.984375 C 18.320312 0.984375 12.457031 -0.925781 8.25 -4.75 C 4.050781 -8.582031 1.953125 -14.003906 1.953125 -21.015625 L 16.71875 -21.015625 C 16.71875 -17.523438 17.445312 -14.945312 18.90625 -13.28125 C 20.375 -11.625 22.6875 -10.796875 25.84375 -10.796875 C 28.644531 -10.796875 30.875 -11.753906 32.53125 -13.671875 C 34.195312 -15.597656 35.03125 -18.335938 35.03125 -21.890625 Z M 35.03125 -71.15625 "/></g></g></g><g fill="#000000" fill-opacity="1"><g transform="translate(208.965311, 106.847624)"><g><path d="M 36.0625 0 C 35.414062 -1.269531 34.941406 -2.847656 34.640625 -4.734375 C 31.222656 -0.921875 26.78125 0.984375 21.3125 0.984375 C 16.125 0.984375 11.828125 -0.515625 8.421875 -3.515625 C 5.023438 -6.515625 3.328125 -10.296875 3.328125 -14.859375 C 3.328125 -20.460938 5.398438 -24.757812 9.546875 -27.75 C 13.703125 -30.75 19.707031 -32.265625 27.5625 -32.296875 L 34.0625 -32.296875 L 34.0625 -35.328125 C 34.0625 -37.773438 33.429688 -39.726562 32.171875 -41.1875 C 30.921875 -42.65625 28.941406 -43.390625 26.234375 -43.390625 C 23.859375 -43.390625 21.992188 -42.816406 20.640625 -41.671875 C 19.296875 -40.535156 18.625 -38.972656 18.625 -36.984375 L 4.5 -36.984375 C 4.5 -40.046875 5.441406 -42.878906 7.328125 -45.484375 C 9.222656 -48.097656 11.894531 -50.144531 15.34375 -51.625 C 18.800781 -53.101562 22.675781 -53.84375 26.96875 -53.84375 C 33.488281 -53.84375 38.660156 -52.207031 42.484375 -48.9375 C 46.316406 -45.664062 48.234375 -41.066406 48.234375 -35.140625 L 48.234375 -12.21875 C 48.265625 -7.195312 48.960938 -3.398438 50.328125 -0.828125 L 50.328125 0 Z M 24.390625 -9.828125 C 26.472656 -9.828125 28.394531 -10.289062 30.15625 -11.21875 C 31.914062 -12.144531 33.21875 -13.390625 34.0625 -14.953125 L 34.0625 -24.046875 L 28.78125 -24.046875 C 21.707031 -24.046875 17.945312 -21.601562 17.5 -16.71875 L 17.4375 -15.875 C 17.4375 -14.125 18.054688 -12.675781 19.296875 -11.53125 C 20.535156 -10.394531 22.234375 -9.828125 24.390625 -9.828125 Z M 24.390625 -9.828125 "/></g></g></g><g fill="#000000" fill-opacity="1"><g transform="translate(262.621948, 106.847624)"><g><path d="M 20.328125 0 L 6.15625 0 L 6.15625 -52.875 L 20.328125 -52.875 Z M 5.328125 -66.5625 C 5.328125 -68.675781 6.035156 -70.414062 7.453125 -71.78125 C 8.867188 -73.15625 10.800781 -73.84375 13.25 -73.84375 C 15.65625 -73.84375 17.570312 -73.15625 19 -71.78125 C 20.4375 -70.414062 21.15625 -68.675781 21.15625 -66.5625 C 21.15625 -64.40625 20.429688 -62.640625 18.984375 -61.265625 C 17.535156 -59.898438 15.617188 -59.21875 13.234375 -59.21875 C 10.859375 -59.21875 8.945312 -59.898438 7.5 -61.265625 C 6.050781 -62.640625 5.328125 -64.40625 5.328125 -66.5625 Z M 5.328125 -66.5625 "/></g></g></g><g fill="#000000" fill-opacity="1"><g transform="translate(289.157061, 106.847624)"><g><path d="M 64.265625 0 L 49.59375 0 L 49.59375 -30.5 L 21.015625 -30.5 L 21.015625 0 L 6.359375 0 L 6.359375 -71.15625 L 21.015625 -71.15625 L 21.015625 -42.3125 L 49.59375 -42.3125 L 49.59375 -71.15625 L 64.265625 -71.15625 Z M 64.265625 0 "/></g></g></g><g fill="#000000" fill-opacity="1"><g transform="translate(359.868495, 106.847624)"><g><path d="M 3.21875 -26.921875 C 3.21875 -32.171875 4.226562 -36.847656 6.25 -40.953125 C 8.269531 -45.054688 11.175781 -48.226562 14.96875 -50.46875 C 18.769531 -52.71875 23.179688 -53.84375 28.203125 -53.84375 C 35.328125 -53.84375 41.144531 -51.660156 45.65625 -47.296875 C 50.175781 -42.929688 52.695312 -37.003906 53.21875 -29.515625 L 53.3125 -25.90625 C 53.3125 -17.789062 51.046875 -11.28125 46.515625 -6.375 C 41.992188 -1.46875 35.921875 0.984375 28.296875 0.984375 C 20.671875 0.984375 14.582031 -1.457031 10.03125 -6.34375 C 5.488281 -11.238281 3.21875 -17.890625 3.21875 -26.296875 Z M 17.34375 -25.90625 C 17.34375 -20.882812 18.285156 -17.046875 20.171875 -14.390625 C 22.066406 -11.734375 24.773438 -10.40625 28.296875 -10.40625 C 31.710938 -10.40625 34.378906 -11.71875 36.296875 -14.34375 C 38.222656 -16.96875 39.1875 -21.160156 39.1875 -26.921875 C 39.1875 -31.835938 38.222656 -35.648438 36.296875 -38.359375 C 34.378906 -41.066406 31.679688 -42.421875 28.203125 -42.421875 C 24.742188 -42.421875 22.066406 -41.078125 20.171875 -38.390625 C 18.285156 -35.703125 17.34375 -31.539062 17.34375 -25.90625 Z M 17.34375 -25.90625 "/></g></g></g><g fill="#000000" fill-opacity="1"><g transform="translate(416.457189, 106.847624)"><g><path d="M 62.203125 -23.703125 C 61.648438 -16.046875 58.820312 -10.015625 53.71875 -5.609375 C 48.625 -1.210938 41.910156 0.984375 33.578125 0.984375 C 24.453125 0.984375 17.273438 -2.082031 12.046875 -8.21875 C 6.816406 -14.363281 4.203125 -22.796875 4.203125 -33.515625 L 4.203125 -37.875 C 4.203125 -44.71875 5.40625 -50.742188 7.8125 -55.953125 C 10.226562 -61.160156 13.675781 -65.15625 18.15625 -67.9375 C 22.632812 -70.726562 27.835938 -72.125 33.765625 -72.125 C 41.972656 -72.125 48.582031 -69.925781 53.59375 -65.53125 C 58.613281 -61.132812 61.515625 -54.960938 62.296875 -47.015625 L 47.640625 -47.015625 C 47.285156 -51.609375 46.007812 -54.9375 43.8125 -57 C 41.613281 -59.070312 38.265625 -60.109375 33.765625 -60.109375 C 28.878906 -60.109375 25.222656 -58.351562 22.796875 -54.84375 C 20.367188 -51.34375 19.125 -45.914062 19.0625 -38.5625 L 19.0625 -33.1875 C 19.0625 -25.488281 20.222656 -19.863281 22.546875 -16.3125 C 24.878906 -12.769531 28.554688 -11 33.578125 -11 C 38.097656 -11 41.472656 -12.03125 43.703125 -14.09375 C 45.941406 -16.164062 47.222656 -19.367188 47.546875 -23.703125 Z M 62.203125 -23.703125 "/></g></g></g><g fill="#000000" fill-opacity="1"><g transform="translate(481.939789, 106.847624)"><g><path d="M 19.203125 -47.109375 C 22.953125 -51.597656 27.660156 -53.84375 33.328125 -53.84375 C 44.796875 -53.84375 50.609375 -47.179688 50.765625 -33.859375 L 50.765625 0 L 36.65625 0 L 36.65625 -33.46875 C 36.65625 -36.5 36 -38.738281 34.6875 -40.1875 C 33.382812 -41.632812 31.222656 -42.359375 28.203125 -42.359375 C 24.054688 -42.359375 21.054688 -40.765625 19.203125 -37.578125 L 19.203125 0 L 5.078125 0 L 5.078125 -75.0625 L 19.203125 -75.0625 Z M 19.203125 -47.109375 "/></g></g></g><g fill="#000000" fill-opacity="1"><g transform="translate(537.942072, 106.847624)"><g><path d="M 36.0625 0 C 35.414062 -1.269531 34.941406 -2.847656 34.640625 -4.734375 C 31.222656 -0.921875 26.78125 0.984375 21.3125 0.984375 C 16.125 0.984375 11.828125 -0.515625 8.421875 -3.515625 C 5.023438 -6.515625 3.328125 -10.296875 3.328125 -14.859375 C 3.328125 -20.460938 5.398438 -24.757812 9.546875 -27.75 C 13.703125 -30.75 19.707031 -32.265625 27.5625 -32.296875 L 34.0625 -32.296875 L 34.0625 -35.328125 C 34.0625 -37.773438 33.429688 -39.726562 32.171875 -41.1875 C 30.921875 -42.65625 28.941406 -43.390625 26.234375 -43.390625 C 23.859375 -43.390625 21.992188 -42.816406 20.640625 -41.671875 C 19.296875 -40.535156 18.625 -38.972656 18.625 -36.984375 L 4.5 -36.984375 C 4.5 -40.046875 5.441406 -42.878906 7.328125 -45.484375 C 9.222656 -48.097656 11.894531 -50.144531 15.34375 -51.625 C 18.800781 -53.101562 22.675781 -53.84375 26.96875 -53.84375 C 33.488281 -53.84375 38.660156 -52.207031 42.484375 -48.9375 C 46.316406 -45.664062 48.234375 -41.066406 48.234375 -35.140625 L 48.234375 -12.21875 C 48.265625 -7.195312 48.960938 -3.398438 50.328125 -0.828125 L 50.328125 0 Z M 24.390625 -9.828125 C 26.472656 -9.828125 28.394531 -10.289062 30.15625 -11.21875 C 31.914062 -12.144531 33.21875 -13.390625 34.0625 -14.953125 L 34.0625 -24.046875 L 28.78125 -24.046875 C 21.707031 -24.046875 17.945312 -21.601562 17.5 -16.71875 L 17.4375 -15.875 C 17.4375 -14.125 18.054688 -12.675781 19.296875 -11.53125 C 20.535156 -10.394531 22.234375 -9.828125 24.390625 -9.828125 Z M 24.390625 -9.828125 "/></g></g></g><g fill="#000000" fill-opacity="1"><g transform="translate(591.598736, 106.847624)"><g><path d="M 20.328125 0 L 6.15625 0 L 6.15625 -52.875 L 20.328125 -52.875 Z M 5.328125 -66.5625 C 5.328125 -68.675781 6.035156 -70.414062 7.453125 -71.78125 C 8.867188 -73.15625 10.800781 -73.84375 13.25 -73.84375 C 15.65625 -73.84375 17.570312 -73.15625 19 -71.78125 C 20.4375 -70.414062 21.15625 -68.675781 21.15625 -66.5625 C 21.15625 -64.40625 20.429688 -62.640625 18.984375 -61.265625 C 17.535156 -59.898438 15.617188 -59.21875 13.234375 -59.21875 C 10.859375 -59.21875 8.945312 -59.898438 7.5 -61.265625 C 6.050781 -62.640625 5.328125 -64.40625 5.328125 -66.5625 Z M 5.328125 -66.5625 "/></g></g></g><g fill="#000000" fill-opacity="1"><g transform="translate(618.133862, 106.847624)"><g><path d="M 18.421875 -52.875 L 18.859375 -46.765625 C 22.640625 -51.484375 27.707031 -53.84375 34.0625 -53.84375 C 39.664062 -53.84375 43.832031 -52.195312 46.5625 -48.90625 C 49.300781 -45.625 50.703125 -40.707031 50.765625 -34.15625 L 50.765625 0 L 36.65625 0 L 36.65625 -33.8125 C 36.65625 -36.8125 36 -38.984375 34.6875 -40.328125 C 33.382812 -41.679688 31.222656 -42.359375 28.203125 -42.359375 C 24.222656 -42.359375 21.238281 -40.664062 19.25 -37.28125 L 19.25 0 L 5.125 0 L 5.125 -52.875 Z M 18.421875 -52.875 "/></g></g></g><g clip-path="url(#65cd3e05da)"><path fill="#ffc727" d="M 3.75 73.078125 C 3.738281 76.144531 3.929688 79.207031 4.3125 82.25 C 4.761719 85.8125 5.484375 89.335938 6.484375 92.785156 C 9.773438 104.121094 15.871094 114.441406 24.21875 122.785156 C 32.566406 131.132812 42.886719 137.230469 54.222656 140.515625 C 57.671875 141.515625 61.1875 142.242188 64.75 142.695312 C 72.472656 143.667969 80.300781 143.359375 87.925781 141.789062 C 93.285156 140.675781 98.496094 138.929688 103.445312 136.582031 C 115.433594 130.894531 125.570312 121.933594 132.683594 110.730469 C 133.332031 109.710938 133.9375 108.675781 134.5 107.625 C 137.285156 102.707031 139.449219 97.460938 140.949219 92.011719 C 141.464844 90.195312 141.902344 88.289062 142.265625 86.390625 C 142.628906 84.492188 142.902344 82.542969 143.101562 80.570312 C 143.335938 78.308594 143.453125 76.03125 143.472656 73.6875 C 143.488281 70.882812 143.328125 68.082031 143 65.296875 C 142.78125 63.371094 142.492188 61.472656 142.09375 59.601562 C 139.371094 46.105469 132.726562 33.714844 122.992188 23.980469 C 113.257812 14.246094 100.867188 7.601562 87.371094 4.878906 C 85.488281 4.496094 83.585938 4.195312 81.667969 3.96875 C 79.082031 3.667969 76.480469 3.515625 73.875 3.507812 C 71.378906 3.492188 68.882812 3.613281 66.402344 3.871094 C 64.441406 4.070312 62.488281 4.351562 60.582031 4.714844 C 58.671875 5.078125 56.792969 5.503906 54.949219 6.011719 C 49.5 7.515625 44.253906 9.679688 39.332031 12.460938 C 38.277344 13.066406 37.242188 13.671875 36.226562 14.277344 C 31.796875 17.09375 27.695312 20.390625 23.992188 24.113281 C 18.378906 29.757812 13.773438 36.320312 10.371094 43.519531 C 8.03125 48.46875 6.285156 53.679688 5.175781 59.039062 C 4.230469 63.660156 3.753906 68.363281 3.75 73.078125 Z M 3.75 73.078125 " fill-opacity="1" fill-rule="nonzero"/><path fill="#ffffff" d="M 3.75 73.386719 C 3.738281 76.464844 3.929688 79.539062 4.316406 82.589844 C 4.765625 86.167969 5.492188 89.703125 6.492188 93.164062 C 9.792969 104.539062 15.917969 114.898438 24.296875 123.273438 C 32.675781 131.648438 43.035156 137.769531 54.414062 141.066406 C 57.871094 142.070312 61.40625 142.800781 64.976562 143.253906 C 72.730469 144.230469 80.589844 143.921875 88.242188 142.34375 C 93.621094 141.226562 98.851562 139.472656 103.820312 137.121094 C 115.851562 131.410156 126.027344 122.414062 133.171875 111.171875 C 133.820312 110.152344 134.429688 109.113281 134.992188 108.054688 C 137.785156 103.121094 139.960938 97.855469 141.464844 92.386719 C 141.984375 90.566406 142.421875 88.652344 142.785156 86.746094 C 143.152344 84.84375 143.425781 82.882812 143.625 80.90625 C 143.863281 78.636719 143.980469 76.347656 144 73.996094 C 144.011719 71.183594 143.855469 68.371094 143.523438 65.574219 C 143.304688 63.644531 143.015625 61.738281 142.613281 59.859375 C 139.882812 46.316406 133.210938 33.878906 123.441406 24.109375 C 113.667969 14.339844 101.230469 7.671875 87.683594 4.9375 C 85.792969 4.554688 83.886719 4.253906 81.960938 4.027344 C 79.363281 3.726562 76.753906 3.570312 74.140625 3.5625 C 71.632812 3.546875 69.128906 3.667969 66.636719 3.925781 C 64.667969 4.128906 62.707031 4.410156 60.792969 4.773438 C 58.878906 5.140625 56.992188 5.566406 55.144531 6.078125 C 49.671875 7.585938 44.40625 9.757812 39.464844 12.550781 C 38.40625 13.15625 37.367188 13.765625 36.347656 14.371094 C 31.902344 17.199219 27.785156 20.507812 24.070312 24.242188 C 18.433594 29.910156 13.8125 36.496094 10.394531 43.71875 C 8.046875 48.6875 6.296875 53.914062 5.179688 59.296875 C 4.234375 63.933594 3.753906 68.652344 3.75 73.386719 Z M 3.75 73.386719 " fill-opacity="0.1" fill-rule="nonzero"/></g><g clip-path="url(#1d6cdd2bfe)"><path fill="#000000" d="M 140.757812 53.980469 C 141.296875 55.796875 141.757812 57.667969 142.136719 59.59375 C 142.519531 61.464844 142.808594 63.363281 143.046875 65.285156 C 143.375 68.070312 143.53125 70.875 143.519531 73.679688 C 143.519531 76.003906 143.382812 78.300781 143.144531 80.5625 C 142.945312 82.53125 142.664062 84.464844 142.3125 86.382812 C 141.957031 88.300781 141.511719 90.160156 140.996094 92.003906 C 139.5 97.453125 137.335938 102.695312 134.554688 107.613281 C 133.949219 108.667969 133.34375 109.703125 132.738281 110.71875 C 125.625 121.921875 115.488281 130.886719 103.5 136.574219 C 98.53125 138.921875 93.304688 140.664062 87.925781 141.769531 C 80.617188 143.292969 73.113281 143.628906 65.703125 142.769531 Z M 140.757812 53.980469 " fill-opacity="0.05" fill-rule="nonzero"/></g><g clip-path="url(#1abd159c41)"><path fill="#ffffff" d="M 3.949219 68.328125 C 4.042969 67.039062 4.175781 65.769531 4.332031 64.496094 C 4.386719 64.070312 4.441406 63.652344 4.503906 63.226562 C 4.566406 62.796875 4.632812 62.316406 4.703125 61.925781 C 4.859375 61.019531 5.023438 60.019531 5.222656 59.074219 C 6.332031 53.714844 8.074219 48.503906 10.414062 43.554688 C 13.820312 36.359375 18.425781 29.796875 24.039062 24.148438 C 27.738281 20.429688 31.84375 17.128906 36.269531 14.3125 C 37.289062 13.667969 38.324219 13.0625 39.375 12.496094 C 44.296875 9.714844 49.542969 7.550781 54.996094 6.050781 L 57.066406 5.523438 Z M 3.949219 68.328125 " fill-opacity="0.15" fill-rule="nonzero"/></g><path stroke-linecap="butt" transform="matrix(0.2805, 0, 0, 0.2805, 3.750005, 3.000002)" fill-opacity="1" fill="#fe9e02" fill-rule="nonzero" stroke-linejoin="miter" d="M 91.995303 252.102827 C 91.995303 254.985514 91.995303 257.868202 92.259897 260.528072 C 94.293097 299.07531 110.391582 335.54757 137.505553 363.037544 C 164.605598 390.541443 200.855042 407.155191 239.388353 409.745432 L 241.519035 409.745432 C 244.401722 409.884692 247.145149 409.996101 249.972133 409.996101 C 289.549896 410.037879 327.693279 395.206662 356.854376 368.454767 C 386.015472 341.702873 404.049675 304.966019 407.391921 265.541441 C 407.795776 261.071187 408.004666 256.573081 408.004666 251.991419 C 408.004666 247.395831 407.85148 243.677582 407.503329 239.555479 C 404.578864 202.052693 388.355045 166.819849 361.742411 140.207215 C 335.129776 113.608507 299.896933 97.384688 262.380221 94.460222 C 258.313822 94.139924 254.14994 94.000663 249.972133 94.000663 C 246.420996 94.000663 242.842008 94.000663 239.388353 94.348814 C 238.371754 94.348814 237.396932 94.348814 236.505666 94.57163 C 197.053237 97.913876 160.316383 115.948079 133.550562 145.109176 C 106.784742 174.270272 91.953525 212.413655 91.995303 251.991419 Z M 91.995303 252.102827 " stroke="#997a24" stroke-width="8" stroke-opacity="1" stroke-miterlimit="4"/><path fill="#ffffff" d="M 77.820312 68.921875 C 79.492188 68.921875 81.164062 68.953125 82.835938 68.914062 C 85.050781 68.863281 86.898438 69.644531 88.453125 71.152344 C 89.238281 71.914062 90.003906 72.695312 90.800781 73.445312 C 93.433594 75.929688 94.78125 78.984375 94.855469 82.535156 C 94.917969 85.5 95.066406 88.476562 94.757812 91.433594 C 94.027344 98.378906 90.347656 103.304688 83.882812 106.222656 C 81.660156 107.226562 79.304688 107.664062 76.84375 107.625 C 74.015625 107.582031 71.1875 107.617188 68.359375 107.613281 C 60.445312 107.601562 53.214844 102.117188 51.210938 94.617188 C 50.804688 93.082031 50.601562 91.503906 50.605469 89.917969 C 50.605469 87.378906 50.605469 84.835938 50.605469 82.296875 C 50.605469 81.472656 50.652344 81.449219 51.398438 81.835938 C 55.292969 83.859375 59.816406 81.234375 59.84375 76.917969 C 59.863281 73.546875 59.832031 70.175781 59.855469 66.804688 C 59.863281 65.847656 59.535156 64.980469 59.289062 64.085938 C 57.816406 58.746094 56.347656 53.40625 54.875 48.0625 C 54.472656 46.605469 54.671875 45.261719 55.691406 44.101562 C 56.785156 42.859375 58.203125 42.476562 59.804688 42.832031 C 61.40625 43.1875 62.402344 44.207031 62.828125 45.742188 C 63.96875 49.84375 65.085938 53.949219 66.210938 58.054688 C 67.058594 61.136719 67.90625 64.222656 68.753906 67.308594 C 68.839844 67.625 68.949219 67.945312 68.777344 68.261719 C 67.65625 70.347656 68.207031 72.355469 69.21875 74.246094 C 70.976562 77.523438 73.863281 79.101562 77.625 79.164062 C 78.988281 79.183594 80.351562 79.207031 81.710938 79.152344 C 82.453125 79.121094 82.789062 79.453125 82.980469 80.078125 C 83.125 80.554688 83.046875 80.808594 82.484375 80.933594 C 80.046875 81.472656 77.792969 82.449219 75.800781 83.921875 C 71.019531 87.457031 68.433594 92.136719 68.210938 98.027344 C 68.210938 98.152344 68.210938 98.28125 68.210938 98.40625 C 68.230469 99.042969 68.53125 99.46875 69.207031 99.53125 C 69.796875 99.582031 70.300781 99.09375 70.308594 98.414062 C 70.328125 97.230469 70.40625 96.050781 70.730469 94.90625 C 72.636719 88.21875 77.019531 84.117188 84.019531 82.773438 C 85.089844 82.566406 85.339844 82.289062 85.316406 81.195312 C 85.289062 79.976562 84.882812 78.882812 84.238281 77.855469 C 83.898438 77.316406 83.433594 77.089844 82.769531 77.078125 C 80.609375 77.046875 78.445312 77.246094 76.296875 76.96875 C 73.011719 76.542969 70.34375 73.632812 70.328125 70.527344 C 70.324219 69.390625 70.707031 68.957031 71.882812 68.9375 C 73.863281 68.90625 75.839844 68.929688 77.820312 68.929688 Z M 77.820312 68.921875 " fill-opacity="1" fill-rule="nonzero"/><path fill="#ffffff" d="M 79.789062 54.796875 C 79.789062 58.492188 79.769531 62.1875 79.804688 65.882812 C 79.808594 66.648438 79.558594 66.882812 78.785156 66.871094 C 76.652344 66.828125 74.519531 66.835938 72.386719 66.871094 C 71.703125 66.878906 71.417969 66.691406 71.421875 65.980469 C 71.4375 58.59375 71.421875 51.203125 71.4375 43.8125 C 71.4375 42.035156 72.1875 40.613281 73.886719 39.859375 C 75.40625 39.1875 76.902344 39.378906 78.234375 40.40625 C 79.367188 41.285156 79.78125 42.496094 79.78125 43.867188 C 79.789062 47.511719 79.789062 51.152344 79.789062 54.796875 Z M 79.789062 54.796875 " fill-opacity="1" fill-rule="nonzero"/><path fill="#ffffff" d="M 92.988281 41.742188 C 95.589844 41.730469 97.648438 44.0625 97.054688 46.554688 C 96.320312 49.632812 95.414062 52.675781 94.582031 55.734375 C 93.339844 60.273438 92.101562 64.8125 90.855469 69.351562 C 90.621094 70.210938 90.546875 70.238281 89.929688 69.644531 C 88.171875 67.957031 86.09375 66.972656 83.617188 66.867188 C 82.835938 66.835938 83.058594 66.386719 83.164062 65.992188 C 84.023438 62.835938 84.898438 59.683594 85.765625 56.53125 C 86.808594 52.722656 87.851562 48.910156 88.890625 45.101562 C 89.480469 42.972656 90.980469 41.75 92.988281 41.742188 Z M 92.988281 41.742188 " fill-opacity="1" fill-rule="nonzero"/><path fill="#ffffff" d="M 57.730469 71.855469 C 57.730469 73.539062 57.738281 75.222656 57.730469 76.90625 C 57.710938 78.910156 56.195312 80.425781 54.207031 80.441406 C 52.199219 80.457031 50.632812 78.992188 50.617188 76.984375 C 50.585938 73.566406 50.585938 70.148438 50.617188 66.730469 C 50.636719 64.726562 52.214844 63.28125 54.242188 63.304688 C 56.1875 63.332031 57.707031 64.839844 57.726562 66.800781 C 57.742188 68.488281 57.730469 70.171875 57.730469 71.855469 Z M 57.730469 71.855469 " fill-opacity="1" fill-rule="nonzero"/><path fill="#ffffff" d="M 131.214844 33.792969 C 133.457031 37.0625 135.417969 40.511719 137.082031 44.109375 L 55.332031 140.859375 C 54.960938 140.761719 54.585938 140.671875 54.222656 140.5625 C 50.800781 139.558594 47.460938 138.292969 44.234375 136.773438 Z M 131.214844 33.792969 " fill-opacity="0.15" fill-rule="nonzero"/><path fill="#ffffff" d="M 104.480469 10.671875 C 108.144531 12.480469 111.644531 14.609375 114.941406 17.03125 L 24.964844 123.480469 C 22.03125 120.628906 19.351562 117.527344 16.964844 114.207031 Z M 104.480469 10.671875 " fill-opacity="0.15" fill-rule="nonzero"/><path fill="#ffffff" d="M 94.273438 6.621094 C 96.433594 7.285156 98.558594 8.058594 100.628906 8.917969 L 14.59375 110.703125 C 13.386719 108.804688 12.257812 106.859375 11.242188 104.84375 Z M 94.273438 6.621094 " fill-opacity="0.15" fill-rule="nonzero"/><path fill="#ffffff" d="M 28.933594 31.523438 L 30.085938 16.339844 L 31.238281 31.523438 L 46.421875 32.683594 L 31.238281 33.839844 L 30.085938 49.023438 L 28.933594 33.839844 L 13.75 32.683594 Z M 28.933594 31.523438 " fill-opacity="1" fill-rule="nonzero"/><path fill="#ffffff" d="M 40.839844 43.980469 L 41.402344 36.625 L 41.964844 43.980469 L 49.320312 44.546875 L 41.964844 45.097656 L 41.402344 52.464844 L 40.839844 45.097656 L 33.480469 44.546875 Z M 40.839844 43.980469 " fill-opacity="1" fill-rule="nonzero"/><path fill="#997a24" d="M 13.847656 76.492188 L 28.996094 76.492188 L 28.996094 77.613281 L 13.847656 77.613281 Z M 13.847656 76.492188 " fill-opacity="1" fill-rule="nonzero"/><path fill="#997a24" d="M 20.578125 68.636719 L 29.277344 68.636719 L 29.277344 69.757812 L 20.578125 69.757812 Z M 20.578125 68.636719 " fill-opacity="1" fill-rule="nonzero"/><path fill="#997a24" d="M 14.128906 77.050781 C 14.128906 77.386719 14.0625 77.707031 13.9375 78.019531 C 13.808594 78.328125 13.625 78.601562 13.390625 78.835938 C 13.152344 79.074219 12.878906 79.257812 12.570312 79.382812 C 12.261719 79.511719 11.9375 79.578125 11.605469 79.578125 C 11.269531 79.578125 10.945312 79.511719 10.636719 79.382812 C 10.328125 79.257812 10.054688 79.074219 9.820312 78.835938 C 9.582031 78.601562 9.398438 78.328125 9.273438 78.019531 C 9.144531 77.707031 9.078125 77.386719 9.078125 77.050781 C 9.078125 76.71875 9.144531 76.394531 9.273438 76.085938 C 9.398438 75.777344 9.582031 75.503906 9.820312 75.265625 C 10.054688 75.03125 10.328125 74.847656 10.636719 74.71875 C 10.945312 74.589844 11.269531 74.527344 11.605469 74.527344 C 11.9375 74.527344 12.261719 74.589844 12.570312 74.71875 C 12.878906 74.847656 13.152344 75.03125 13.390625 75.265625 C 13.625 75.503906 13.808594 75.777344 13.9375 76.085938 C 14.0625 76.394531 14.128906 76.71875 14.128906 77.050781 Z M 14.128906 77.050781 " fill-opacity="1" fill-rule="nonzero"/><path fill="#997a24" d="M 20.578125 69.199219 C 20.578125 69.53125 20.515625 69.855469 20.386719 70.164062 C 20.257812 70.472656 20.078125 70.746094 19.839844 70.984375 C 19.605469 71.21875 19.332031 71.402344 19.023438 71.53125 C 18.710938 71.660156 18.390625 71.722656 18.054688 71.722656 C 17.722656 71.722656 17.398438 71.660156 17.089844 71.53125 C 16.78125 71.402344 16.507812 71.21875 16.269531 70.984375 C 16.035156 70.746094 15.851562 70.472656 15.722656 70.164062 C 15.59375 69.855469 15.53125 69.53125 15.53125 69.199219 C 15.53125 68.863281 15.59375 68.542969 15.722656 68.230469 C 15.851562 67.921875 16.035156 67.648438 16.269531 67.414062 C 16.507812 67.175781 16.78125 66.992188 17.089844 66.867188 C 17.398438 66.738281 17.722656 66.671875 18.054688 66.671875 C 18.390625 66.671875 18.710938 66.738281 19.023438 66.867188 C 19.332031 66.992188 19.605469 67.175781 19.839844 67.414062 C 20.078125 67.648438 20.257812 67.921875 20.386719 68.230469 C 20.515625 68.542969 20.578125 68.863281 20.578125 69.199219 Z M 20.578125 69.199219 " fill-opacity="1" fill-rule="nonzero"/><path fill="#997a24" d="M 133.902344 76.492188 L 118.753906 76.492188 L 118.753906 77.613281 L 133.902344 77.613281 Z M 133.902344 76.492188 " fill-opacity="1" fill-rule="nonzero"/><path fill="#997a24" d="M 127.171875 68.636719 L 118.472656 68.636719 L 118.472656 69.757812 L 127.171875 69.757812 Z M 127.171875 68.636719 " fill-opacity="1" fill-rule="nonzero"/><path fill="#997a24" d="M 133.621094 77.050781 C 133.621094 77.386719 133.6875 77.707031 133.8125 78.019531 C 133.941406 78.328125 134.125 78.601562 134.359375 78.835938 C 134.597656 79.074219 134.871094 79.257812 135.179688 79.382812 C 135.488281 79.511719 135.8125 79.578125 136.144531 79.578125 C 136.480469 79.578125 136.804688 79.511719 137.113281 79.382812 C 137.421875 79.257812 137.695312 79.074219 137.929688 78.835938 C 138.167969 78.601562 138.351562 78.328125 138.476562 78.019531 C 138.605469 77.707031 138.671875 77.386719 138.671875 77.050781 C 138.671875 76.71875 138.605469 76.394531 138.476562 76.085938 C 138.351562 75.777344 138.167969 75.503906 137.929688 75.265625 C 137.695312 75.03125 137.421875 74.847656 137.113281 74.71875 C 136.804688 74.589844 136.480469 74.527344 136.144531 74.527344 C 135.8125 74.527344 135.488281 74.589844 135.179688 74.71875 C 134.871094 74.847656 134.597656 75.03125 134.359375 75.265625 C 134.125 75.503906 133.941406 75.777344 133.8125 76.085938 C 133.6875 76.394531 133.621094 76.71875 133.621094 77.050781 Z M 133.621094 77.050781 " fill-opacity="1" fill-rule="nonzero"/><path fill="#997a24" d="M 127.171875 69.199219 C 127.171875 69.53125 127.234375 69.855469 127.363281 70.164062 C 127.492188 70.472656 127.671875 70.746094 127.910156 70.984375 C 128.144531 71.21875 128.417969 71.402344 128.726562 71.53125 C 129.039062 71.660156 129.359375 71.722656 129.695312 71.722656 C 130.027344 71.722656 130.351562 71.660156 130.660156 71.53125 C 130.96875 71.402344 131.242188 71.21875 131.480469 70.984375 C 131.714844 70.746094 131.898438 70.472656 132.027344 70.164062 C 132.15625 69.855469 132.21875 69.53125 132.21875 69.199219 C 132.21875 68.863281 132.15625 68.542969 132.027344 68.230469 C 131.898438 67.921875 131.714844 67.648438 131.480469 67.414062 C 131.242188 67.175781 130.96875 66.992188 130.660156 66.867188 C 130.351562 66.738281 130.027344 66.671875 129.695312 66.671875 C 129.359375 66.671875 129.039062 66.738281 128.726562 66.867188 C 128.417969 66.992188 128.144531 67.175781 127.910156 67.414062 C 127.671875 67.648438 127.492188 67.921875 127.363281 68.230469 C 127.234375 68.542969 127.171875 68.863281 127.171875 69.199219 Z M 127.171875 69.199219 " fill-opacity="1" fill-rule="nonzero"/><path fill="#997a24" d="M 77.242188 133.714844 L 77.242188 118.566406 L 78.363281 118.566406 L 78.363281 133.714844 Z M 77.242188 133.714844 " fill-opacity="1" fill-rule="nonzero"/><path fill="#997a24" d="M 69.386719 126.980469 L 69.386719 118.285156 L 70.507812 118.285156 L 70.507812 126.980469 Z M 69.386719 126.980469 " fill-opacity="1" fill-rule="nonzero"/><path fill="#997a24" d="M 77.800781 133.433594 C 78.136719 133.433594 78.457031 133.496094 78.769531 133.625 C 79.078125 133.753906 79.351562 133.933594 79.585938 134.171875 C 79.824219 134.410156 80.007812 134.679688 80.132812 134.992188 C 80.261719 135.300781 80.328125 135.621094 80.328125 135.957031 C 80.328125 136.292969 80.261719 136.613281 80.132812 136.921875 C 80.007812 137.230469 79.824219 137.503906 79.585938 137.742188 C 79.351562 137.980469 79.078125 138.160156 78.769531 138.289062 C 78.457031 138.417969 78.136719 138.480469 77.800781 138.480469 C 77.46875 138.480469 77.144531 138.417969 76.835938 138.289062 C 76.527344 138.160156 76.253906 137.980469 76.015625 137.742188 C 75.78125 137.503906 75.597656 137.230469 75.46875 136.921875 C 75.339844 136.613281 75.277344 136.292969 75.277344 135.957031 C 75.277344 135.621094 75.339844 135.300781 75.46875 134.992188 C 75.597656 134.683594 75.78125 134.410156 76.015625 134.171875 C 76.253906 133.933594 76.527344 133.753906 76.835938 133.625 C 77.144531 133.496094 77.46875 133.433594 77.800781 133.433594 Z M 77.800781 133.433594 " fill-opacity="1" fill-rule="nonzero"/><path fill="#997a24" d="M 69.949219 126.980469 C 70.28125 126.980469 70.605469 127.046875 70.914062 127.171875 C 71.222656 127.300781 71.496094 127.484375 71.734375 127.71875 C 71.96875 127.957031 72.152344 128.230469 72.28125 128.539062 C 72.410156 128.847656 72.472656 129.171875 72.472656 129.503906 C 72.472656 129.839844 72.410156 130.164062 72.28125 130.472656 C 72.152344 130.78125 71.96875 131.054688 71.734375 131.289062 C 71.496094 131.527344 71.222656 131.710938 70.914062 131.835938 C 70.605469 131.964844 70.28125 132.03125 69.949219 132.03125 C 69.613281 132.03125 69.292969 131.964844 68.980469 131.835938 C 68.671875 131.710938 68.398438 131.527344 68.164062 131.289062 C 67.925781 131.054688 67.742188 130.78125 67.617188 130.472656 C 67.488281 130.164062 67.421875 129.839844 67.421875 129.503906 C 67.421875 129.171875 67.488281 128.847656 67.617188 128.539062 C 67.742188 128.230469 67.925781 127.957031 68.164062 127.71875 C 68.398438 127.484375 68.671875 127.300781 68.980469 127.171875 C 69.292969 127.046875 69.613281 126.980469 69.949219 126.980469 Z M 69.949219 126.980469 " fill-opacity="1" fill-rule="nonzero"/><path fill="#997a24" d="M 77.242188 13.660156 L 77.242188 28.804688 L 78.363281 28.804688 L 78.363281 13.660156 Z M 77.242188 13.660156 " fill-opacity="1" fill-rule="nonzero"/><path fill="#997a24" d="M 69.386719 20.390625 L 69.386719 29.085938 L 70.507812 29.085938 L 70.507812 20.390625 Z M 69.386719 20.390625 " fill-opacity="1" fill-rule="nonzero"/><path fill="#997a24" d="M 77.800781 13.941406 C 78.136719 13.941406 78.457031 13.875 78.769531 13.746094 C 79.078125 13.621094 79.351562 13.4375 79.585938 13.199219 C 79.824219 12.964844 80.007812 12.691406 80.132812 12.382812 C 80.261719 12.070312 80.328125 11.75 80.328125 11.414062 C 80.328125 11.082031 80.261719 10.757812 80.132812 10.449219 C 80.007812 10.140625 79.824219 9.867188 79.585938 9.628906 C 79.351562 9.394531 79.078125 9.210938 78.769531 9.082031 C 78.457031 8.953125 78.136719 8.890625 77.800781 8.890625 C 77.46875 8.890625 77.144531 8.953125 76.835938 9.082031 C 76.527344 9.210938 76.253906 9.394531 76.015625 9.628906 C 75.78125 9.867188 75.597656 10.140625 75.46875 10.449219 C 75.339844 10.757812 75.277344 11.082031 75.277344 11.414062 C 75.277344 11.75 75.339844 12.070312 75.46875 12.382812 C 75.597656 12.691406 75.78125 12.964844 76.015625 13.199219 C 76.253906 13.4375 76.527344 13.621094 76.835938 13.746094 C 77.144531 13.875 77.46875 13.941406 77.800781 13.941406 Z M 77.800781 13.941406 " fill-opacity="1" fill-rule="nonzero"/><path fill="#997a24" d="M 69.949219 20.390625 C 70.28125 20.390625 70.605469 20.328125 70.914062 20.199219 C 71.222656 20.070312 71.496094 19.886719 71.734375 19.652344 C 71.96875 19.414062 72.152344 19.140625 72.28125 18.832031 C 72.410156 18.523438 72.472656 18.203125 72.472656 17.867188 C 72.472656 17.53125 72.410156 17.210938 72.28125 16.902344 C 72.152344 16.589844 71.96875 16.316406 71.734375 16.082031 C 71.496094 15.84375 71.222656 15.664062 70.914062 15.535156 C 70.605469 15.40625 70.28125 15.34375 69.949219 15.34375 C 69.613281 15.34375 69.292969 15.40625 68.980469 15.535156 C 68.671875 15.664062 68.398438 15.84375 68.164062 16.082031 C 67.925781 16.316406 67.742188 16.589844 67.617188 16.902344 C 67.488281 17.210938 67.421875 17.53125 67.421875 17.867188 C 67.421875 18.203125 67.488281 18.523438 67.617188 18.832031 C 67.742188 19.140625 67.925781 19.414062 68.164062 19.652344 C 68.398438 19.886719 68.671875 20.070312 68.980469 20.199219 C 69.292969 20.328125 69.613281 20.390625 69.949219 20.390625 Z M 69.949219 20.390625 " fill-opacity="1" fill-rule="nonzero"/></svg>
