<svg xmlns="http://www.w3.org/2000/svg" xmlns:xlink="http://www.w3.org/1999/xlink" width="1650" zoomAndPan="magnify" viewBox="0 0 1237.5 187.499995" height="250" preserveAspectRatio="xMidYMid meet" version="1.0"><defs><g/><clipPath id="d11d5deac7"><path d="M 20.097656 8.601562 L 189.894531 8.601562 L 189.894531 178.398438 L 20.097656 178.398438 Z M 20.097656 8.601562 " clip-rule="nonzero"/></clipPath><clipPath id="af40c8dd2a"><path d="M 65.578125 55.390625 L 143.476562 55.390625 L 143.476562 133.289062 L 65.578125 133.289062 Z M 65.578125 55.390625 " clip-rule="nonzero"/></clipPath><clipPath id="f216904463"><path d="M 104.527344 55.390625 C 83.015625 55.390625 65.578125 72.828125 65.578125 94.339844 C 65.578125 115.851562 83.015625 133.289062 104.527344 133.289062 C 126.039062 133.289062 143.476562 115.851562 143.476562 94.339844 C 143.476562 72.828125 126.039062 55.390625 104.527344 55.390625 Z M 104.527344 55.390625 " clip-rule="nonzero"/></clipPath><clipPath id="2f191abc75"><path d="M 76.5625 52 L 133.410156 52 L 133.410156 136.019531 L 76.5625 136.019531 Z M 76.5625 52 " clip-rule="nonzero"/></clipPath></defs><g clip-path="url(#d11d5deac7)"><path fill="#ffffff" d="M 179.648438 102.28125 C 178.320312 102.28125 177.195312 101.425781 176.796875 100.234375 L 159.054688 100.234375 C 156.007812 124.9375 136.429688 144.511719 111.730469 147.5625 L 111.730469 165.300781 C 112.917969 165.703125 113.777344 166.828125 113.777344 168.152344 C 113.777344 169.816406 112.429688 171.164062 110.765625 171.164062 C 109.101562 171.164062 107.753906 169.816406 107.753906 168.152344 C 107.753906 166.828125 108.613281 165.703125 109.800781 165.300781 L 109.800781 147.761719 C 108.214844 147.902344 106.613281 147.976562 104.988281 147.976562 C 103.367188 147.976562 101.761719 147.902344 100.175781 147.761719 L 100.175781 154.148438 C 101.367188 154.550781 102.222656 155.675781 102.222656 157.003906 C 102.222656 158.667969 100.875 160.015625 99.214844 160.015625 C 97.550781 160.015625 96.203125 158.667969 96.203125 157.003906 C 96.203125 155.675781 97.058594 154.550781 98.25 154.148438 L 98.25 147.5625 C 73.550781 144.511719 53.972656 124.9375 50.921875 100.234375 L 35.726562 100.234375 C 35.289062 102.121094 33.597656 103.53125 31.578125 103.53125 C 29.226562 103.53125 27.320312 101.625 27.320312 99.273438 C 27.320312 96.921875 29.226562 95.015625 31.578125 95.015625 C 33.597656 95.015625 35.289062 96.421875 35.726562 98.308594 L 50.722656 98.308594 C 50.582031 96.722656 50.507812 95.117188 50.507812 93.496094 C 50.507812 91.875 50.582031 90.269531 50.722656 88.679688 L 44.238281 88.679688 C 43.800781 90.570312 42.113281 91.976562 40.09375 91.976562 C 37.742188 91.976562 35.835938 90.070312 35.835938 87.71875 C 35.835938 85.367188 37.742188 83.460938 40.09375 83.460938 C 42.113281 83.460938 43.800781 84.867188 44.238281 86.757812 L 50.921875 86.757812 C 53.972656 62.054688 73.550781 42.476562 98.25 39.429688 L 98.25 32.746094 C 96.363281 32.308594 94.953125 30.621094 94.953125 28.597656 C 94.953125 26.25 96.863281 24.34375 99.214844 24.34375 C 101.5625 24.34375 103.46875 26.25 103.46875 28.597656 C 103.46875 30.621094 102.0625 32.308594 100.175781 32.746094 L 100.175781 39.230469 C 101.761719 39.089844 103.367188 39.015625 104.988281 39.015625 C 106.613281 39.015625 108.214844 39.089844 109.800781 39.230469 L 109.800781 24.230469 C 107.917969 23.796875 106.507812 22.105469 106.507812 20.085938 C 106.507812 17.734375 108.414062 15.828125 110.765625 15.828125 C 113.117188 15.828125 115.023438 17.734375 115.023438 20.085938 C 115.023438 22.105469 113.613281 23.796875 111.730469 24.230469 L 111.730469 39.429688 C 136.429688 42.476562 156.007812 62.058594 159.054688 86.757812 L 165.644531 86.757812 C 166.046875 85.566406 167.171875 84.710938 168.496094 84.710938 C 170.160156 84.710938 171.507812 86.058594 171.507812 87.71875 C 171.507812 89.382812 170.160156 90.730469 168.496094 90.730469 C 167.171875 90.730469 166.046875 89.871094 165.644531 88.679688 L 159.257812 88.679688 C 159.394531 90.269531 159.46875 91.875 159.46875 93.496094 C 159.46875 95.117188 159.394531 96.722656 159.257812 98.308594 L 176.796875 98.308594 C 177.195312 97.121094 178.320312 96.261719 179.648438 96.261719 C 181.308594 96.261719 182.65625 97.609375 182.65625 99.273438 C 182.65625 100.933594 181.308594 102.28125 179.648438 102.28125 Z M 104.988281 8.597656 C 58.101562 8.597656 20.09375 46.609375 20.09375 93.496094 C 20.09375 140.382812 58.101562 178.394531 104.988281 178.394531 C 151.875 178.394531 189.886719 140.382812 189.886719 93.496094 C 189.886719 46.609375 151.875 8.597656 104.988281 8.597656 " fill-opacity="1" fill-rule="nonzero"/></g><path fill="#ffffff" d="M 104.625 88.394531 C 107.703125 88.394531 109.980469 88.140625 111.457031 87.625 C 111.808594 87.503906 112.140625 87.363281 112.453125 87.210938 C 113.441406 86.722656 114.21875 86.085938 114.785156 85.296875 C 115.53125 84.257812 115.902344 83.058594 115.902344 81.699219 C 115.902344 80.285156 115.546875 79.082031 114.84375 78.082031 C 114.261719 77.253906 113.460938 76.628906 112.453125 76.195312 C 112.238281 76.105469 112.015625 76.019531 111.785156 75.941406 C 110.449219 75.519531 108.0625 75.308594 104.625 75.308594 L 98.773438 75.308594 L 98.773438 88.394531 L 104.625 88.394531 " fill-opacity="1" fill-rule="nonzero"/><path fill="#ffffff" d="M 112.484375 97.132812 C 112.476562 97.128906 112.464844 97.125 112.453125 97.121094 C 110.964844 96.566406 108.714844 96.285156 105.6875 96.285156 L 98.773438 96.285156 L 98.773438 109.386719 C 98.808594 110.144531 98.859375 110.617188 98.925781 110.796875 C 99.054688 111.15625 99.265625 111.40625 99.558594 111.546875 C 99.855469 111.6875 100.65625 111.757812 101.960938 111.757812 L 105.878906 111.757812 C 108.15625 111.757812 110.046875 111.546875 111.542969 111.125 C 111.859375 111.035156 112.160156 110.925781 112.453125 110.796875 C 113.566406 110.3125 114.535156 109.542969 115.367188 108.488281 C 116.414062 107.15625 116.941406 105.550781 116.941406 103.675781 C 116.941406 102.085938 116.570312 100.738281 115.828125 99.632812 C 115.082031 98.53125 113.96875 97.699219 112.484375 97.132812 " fill-opacity="1" fill-rule="nonzero"/><path fill="#ffffff" d="M 128.296875 112.972656 C 126.582031 115.371094 124.15625 117.199219 121.015625 118.457031 C 118.851562 119.324219 115.996094 119.890625 112.453125 120.160156 L 112.453125 126.804688 L 104.378906 126.804688 L 104.378906 120.34375 L 98.773438 120.34375 L 98.773438 126.804688 L 90.699219 126.804688 L 90.699219 120.34375 L 79.105469 120.34375 L 79.105469 112.914062 L 81.222656 112.914062 C 82.632812 112.914062 83.589844 112.792969 84.089844 112.546875 C 84.589844 112.304688 84.941406 111.957031 85.148438 111.507812 C 85.351562 111.058594 85.453125 110.050781 85.453125 108.488281 L 85.453125 78.542969 C 85.453125 76.949219 85.351562 75.9375 85.148438 75.5 C 84.941406 75.066406 84.589844 74.71875 84.089844 74.460938 C 83.589844 74.203125 82.632812 74.078125 81.222656 74.078125 L 79.105469 74.078125 L 79.105469 66.648438 L 90.699219 66.648438 L 90.699219 60.183594 L 98.773438 60.183594 L 98.773438 66.648438 L 104.378906 66.648438 L 104.378906 60.183594 L 112.453125 60.183594 L 112.453125 66.726562 C 115.789062 66.90625 118.507812 67.425781 120.605469 68.285156 C 123.269531 69.375 125.320312 70.941406 126.757812 72.980469 C 128.191406 75.019531 128.910156 77.257812 128.910156 79.695312 C 128.910156 81.464844 128.53125 83.148438 127.773438 84.738281 C 127.011719 86.328125 125.917969 87.734375 124.488281 88.953125 C 123.0625 90.171875 121.175781 91.179688 118.832031 91.976562 C 121.34375 92.617188 123.269531 93.324219 124.601562 94.09375 C 126.527344 95.171875 128.054688 96.675781 129.179688 98.613281 C 130.308594 100.554688 130.875 102.714844 130.875 105.101562 C 130.875 107.949219 130.015625 110.570312 128.296875 112.972656 Z M 104.988281 42.914062 C 77.054688 42.914062 54.40625 65.5625 54.40625 93.496094 C 54.40625 121.429688 77.054688 144.078125 104.988281 144.078125 C 132.925781 144.078125 155.570312 121.429688 155.570312 93.496094 C 155.570312 65.5625 132.925781 42.914062 104.988281 42.914062 " fill-opacity="1" fill-rule="nonzero"/><g fill="#ffffff" fill-opacity="1"><g transform="translate(211.191058, 160.073135)"><g><path d="M 74.578125 -139.390625 L 93.046875 -139.390625 L 93.046875 -40.6875 C 93.046875 -27.34375 89.039062 -16.90625 81.03125 -9.375 C 73.03125 -1.84375 62.359375 1.921875 49.015625 1.921875 C 35.160156 1.921875 24.375 -1.617188 16.65625 -8.703125 C 8.9375 -15.796875 5.078125 -25.722656 5.078125 -38.484375 L 23.453125 -38.484375 C 23.453125 -30.503906 25.632812 -24.28125 30 -19.8125 C 34.375 -15.34375 40.710938 -13.109375 49.015625 -13.109375 C 56.609375 -13.109375 62.75 -15.5 67.4375 -20.28125 C 72.132812 -25.070312 74.515625 -31.78125 74.578125 -40.40625 Z M 74.578125 -139.390625 "/></g></g><g transform="translate(319.36851, 160.073135)"><g><path d="M 77.359375 0 C 76.335938 -2.039062 75.503906 -5.675781 74.859375 -10.90625 C 66.628906 -2.351562 56.800781 1.921875 45.375 1.921875 C 35.164062 1.921875 26.789062 -0.960938 20.25 -6.734375 C 13.707031 -12.515625 10.4375 -19.84375 10.4375 -28.71875 C 10.4375 -39.507812 14.535156 -47.882812 22.734375 -53.84375 C 30.929688 -59.8125 42.46875 -62.796875 57.34375 -62.796875 L 74.578125 -62.796875 L 74.578125 -70.9375 C 74.578125 -77.125 72.722656 -82.050781 69.015625 -85.71875 C 65.316406 -89.394531 59.863281 -91.234375 52.65625 -91.234375 C 46.332031 -91.234375 41.03125 -89.632812 36.75 -86.4375 C 32.476562 -83.25 30.34375 -79.390625 30.34375 -74.859375 L 12.546875 -74.859375 C 12.546875 -80.035156 14.378906 -85.03125 18.046875 -89.84375 C 21.710938 -94.664062 26.6875 -98.476562 32.96875 -101.28125 C 39.257812 -104.09375 46.171875 -105.5 53.703125 -105.5 C 65.640625 -105.5 74.988281 -102.515625 81.75 -96.546875 C 88.519531 -90.578125 92.03125 -82.359375 92.28125 -71.890625 L 92.28125 -24.21875 C 92.28125 -14.707031 93.492188 -7.144531 95.921875 -1.53125 L 95.921875 0 Z M 47.96875 -13.5 C 53.519531 -13.5 58.78125 -14.929688 63.75 -17.796875 C 68.726562 -20.671875 72.335938 -24.40625 74.578125 -29 L 74.578125 -50.265625 L 60.6875 -50.265625 C 38.988281 -50.265625 28.140625 -43.910156 28.140625 -31.203125 C 28.140625 -25.648438 29.988281 -21.3125 33.6875 -18.1875 C 37.394531 -15.0625 42.15625 -13.5 47.96875 -13.5 Z M 47.96875 -13.5 "/></g></g><g transform="translate(426.014245, 160.073135)"><g><path d="M 32.640625 0 L 14.9375 0 L 14.9375 -103.578125 L 32.640625 -103.578125 Z M 13.5 -131.0625 C 13.5 -133.9375 14.375 -136.359375 16.125 -138.328125 C 17.882812 -140.304688 20.488281 -141.296875 23.9375 -141.296875 C 27.382812 -141.296875 30 -140.304688 31.78125 -138.328125 C 33.570312 -136.359375 34.46875 -133.9375 34.46875 -131.0625 C 34.46875 -128.1875 33.570312 -125.789062 31.78125 -123.875 C 30 -121.957031 27.382812 -121 23.9375 -121 C 20.488281 -121 17.882812 -121.957031 16.125 -123.875 C 14.375 -125.789062 13.5 -128.1875 13.5 -131.0625 Z M 13.5 -131.0625 "/></g></g><g transform="translate(473.593178, 160.073135)"><g><path d="M 123.3125 0 L 104.828125 0 L 104.828125 -64.421875 L 34.5625 -64.421875 L 34.5625 0 L 16.171875 0 L 16.171875 -139.390625 L 34.5625 -139.390625 L 34.5625 -79.453125 L 104.828125 -79.453125 L 104.828125 -139.390625 L 123.3125 -139.390625 Z M 123.3125 0 "/></g></g><g transform="translate(613.362276, 160.073135)"><g><path d="M 8.71875 -52.75 C 8.71875 -62.894531 10.707031 -72.019531 14.6875 -80.125 C 18.675781 -88.226562 24.226562 -94.484375 31.34375 -98.890625 C 38.46875 -103.296875 46.59375 -105.5 55.71875 -105.5 C 69.820312 -105.5 81.226562 -100.613281 89.9375 -90.84375 C 98.65625 -81.082031 103.015625 -68.097656 103.015625 -51.890625 L 103.015625 -50.640625 C 103.015625 -40.554688 101.082031 -31.507812 97.21875 -23.5 C 93.351562 -15.488281 87.832031 -9.25 80.65625 -4.78125 C 73.476562 -0.3125 65.226562 1.921875 55.90625 1.921875 C 41.863281 1.921875 30.488281 -2.957031 21.78125 -12.71875 C 13.070312 -22.488281 8.71875 -35.414062 8.71875 -51.5 Z M 26.515625 -50.640625 C 26.515625 -39.148438 29.175781 -29.925781 34.5 -22.96875 C 39.832031 -16.019531 46.96875 -12.546875 55.90625 -12.546875 C 64.90625 -12.546875 72.050781 -16.070312 77.34375 -23.125 C 82.644531 -30.175781 85.296875 -40.050781 85.296875 -52.75 C 85.296875 -64.113281 82.597656 -73.320312 77.203125 -80.375 C 71.816406 -87.425781 64.65625 -90.953125 55.71875 -90.953125 C 46.96875 -90.953125 39.910156 -87.472656 34.546875 -80.515625 C 29.191406 -73.554688 26.515625 -63.597656 26.515625 -50.640625 Z M 26.515625 -50.640625 "/></g></g><g transform="translate(725.177554, 160.073135)"><g><path d="M 118.703125 -44.234375 C 116.984375 -29.484375 111.546875 -18.101562 102.390625 -10.09375 C 93.234375 -2.082031 81.054688 1.921875 65.859375 1.921875 C 49.398438 1.921875 36.207031 -3.976562 26.28125 -15.78125 C 16.351562 -27.59375 11.390625 -43.394531 11.390625 -63.1875 L 11.390625 -76.59375 C 11.390625 -89.539062 13.703125 -100.925781 18.328125 -110.75 C 22.960938 -120.582031 29.519531 -128.128906 38 -133.390625 C 46.488281 -138.660156 56.320312 -141.296875 67.5 -141.296875 C 82.300781 -141.296875 94.171875 -137.164062 103.109375 -128.90625 C 112.046875 -120.644531 117.242188 -109.203125 118.703125 -94.578125 L 100.234375 -94.578125 C 98.640625 -105.691406 95.175781 -113.734375 89.84375 -118.703125 C 84.519531 -123.679688 77.070312 -126.171875 67.5 -126.171875 C 55.75 -126.171875 46.539062 -121.832031 39.875 -113.15625 C 33.207031 -104.476562 29.875 -92.128906 29.875 -76.109375 L 29.875 -62.609375 C 29.875 -47.484375 33.03125 -35.453125 39.34375 -26.515625 C 45.664062 -17.578125 54.503906 -13.109375 65.859375 -13.109375 C 76.078125 -13.109375 83.910156 -15.421875 89.359375 -20.046875 C 94.816406 -24.679688 98.441406 -32.742188 100.234375 -44.234375 Z M 118.703125 -44.234375 "/></g></g><g transform="translate(852.788656, 160.073135)"><g><path d="M 31.109375 -91.046875 C 38.960938 -100.679688 49.175781 -105.5 61.75 -105.5 C 83.632812 -105.5 94.675781 -93.148438 94.875 -68.453125 L 94.875 0 L 77.15625 0 L 77.15625 -68.546875 C 77.09375 -76.015625 75.382812 -81.535156 72.03125 -85.109375 C 68.6875 -88.679688 63.472656 -90.46875 56.390625 -90.46875 C 50.640625 -90.46875 45.59375 -88.9375 41.25 -85.875 C 36.914062 -82.8125 33.535156 -78.789062 31.109375 -73.8125 L 31.109375 0 L 13.40625 0 L 13.40625 -147.046875 L 31.109375 -147.046875 Z M 31.109375 -91.046875 "/></g></g><g transform="translate(960.774643, 160.073135)"><g><path d="M 77.359375 0 C 76.335938 -2.039062 75.503906 -5.675781 74.859375 -10.90625 C 66.628906 -2.351562 56.800781 1.921875 45.375 1.921875 C 35.164062 1.921875 26.789062 -0.960938 20.25 -6.734375 C 13.707031 -12.515625 10.4375 -19.84375 10.4375 -28.71875 C 10.4375 -39.507812 14.535156 -47.882812 22.734375 -53.84375 C 30.929688 -59.8125 42.46875 -62.796875 57.34375 -62.796875 L 74.578125 -62.796875 L 74.578125 -70.9375 C 74.578125 -77.125 72.722656 -82.050781 69.015625 -85.71875 C 65.316406 -89.394531 59.863281 -91.234375 52.65625 -91.234375 C 46.332031 -91.234375 41.03125 -89.632812 36.75 -86.4375 C 32.476562 -83.25 30.34375 -79.390625 30.34375 -74.859375 L 12.546875 -74.859375 C 12.546875 -80.035156 14.378906 -85.03125 18.046875 -89.84375 C 21.710938 -94.664062 26.6875 -98.476562 32.96875 -101.28125 C 39.257812 -104.09375 46.171875 -105.5 53.703125 -105.5 C 65.640625 -105.5 74.988281 -102.515625 81.75 -96.546875 C 88.519531 -90.578125 92.03125 -82.359375 92.28125 -71.890625 L 92.28125 -24.21875 C 92.28125 -14.707031 93.492188 -7.144531 95.921875 -1.53125 L 95.921875 0 Z M 47.96875 -13.5 C 53.519531 -13.5 58.78125 -14.929688 63.75 -17.796875 C 68.726562 -20.671875 72.335938 -24.40625 74.578125 -29 L 74.578125 -50.265625 L 60.6875 -50.265625 C 38.988281 -50.265625 28.140625 -43.910156 28.140625 -31.203125 C 28.140625 -25.648438 29.988281 -21.3125 33.6875 -18.1875 C 37.394531 -15.0625 42.15625 -13.5 47.96875 -13.5 Z M 47.96875 -13.5 "/></g></g><g transform="translate(1067.420379, 160.073135)"><g><path d="M 32.640625 0 L 14.9375 0 L 14.9375 -103.578125 L 32.640625 -103.578125 Z M 13.5 -131.0625 C 13.5 -133.9375 14.375 -136.359375 16.125 -138.328125 C 17.882812 -140.304688 20.488281 -141.296875 23.9375 -141.296875 C 27.382812 -141.296875 30 -140.304688 31.78125 -138.328125 C 33.570312 -136.359375 34.46875 -133.9375 34.46875 -131.0625 C 34.46875 -128.1875 33.570312 -125.789062 31.78125 -123.875 C 30 -121.957031 27.382812 -121 23.9375 -121 C 20.488281 -121 17.882812 -121.957031 16.125 -123.875 C 14.375 -125.789062 13.5 -128.1875 13.5 -131.0625 Z M 13.5 -131.0625 "/></g></g><g transform="translate(1114.999311, 160.073135)"><g><path d="M 30.15625 -103.578125 L 30.734375 -90.5625 C 38.640625 -100.519531 48.976562 -105.5 61.75 -105.5 C 83.632812 -105.5 94.675781 -93.148438 94.875 -68.453125 L 94.875 0 L 77.15625 0 L 77.15625 -68.546875 C 77.09375 -76.015625 75.382812 -81.535156 72.03125 -85.109375 C 68.6875 -88.679688 63.472656 -90.46875 56.390625 -90.46875 C 50.640625 -90.46875 45.59375 -88.9375 41.25 -85.875 C 36.914062 -82.8125 33.535156 -78.789062 31.109375 -73.8125 L 31.109375 0 L 13.40625 0 L 13.40625 -103.578125 Z M 30.15625 -103.578125 "/></g></g></g><g clip-path="url(#af40c8dd2a)"><g clip-path="url(#f216904463)"><path fill="#ffffff" d="M 65.578125 55.390625 L 143.476562 55.390625 L 143.476562 133.289062 L 65.578125 133.289062 Z M 65.578125 55.390625 " fill-opacity="1" fill-rule="nonzero"/></g></g><g clip-path="url(#2f191abc75)"><path fill="#ffffff" d="M 132.957031 63.074219 C 131.335938 69.128906 126.636719 86.667969 124.9375 93.007812 C 126.261719 94.332031 127.855469 95.855469 129.125 98.78125 C 130.820312 102.664062 130.472656 104.789062 130.472656 114.03125 C 130.472656 126.300781 120.523438 136.25 108.25 136.25 L 98.820312 136.25 C 86.597656 136.25 76.597656 126.347656 76.597656 114.03125 C 76.597656 102.675781 76.597656 134.585938 76.597656 86.417969 C 76.597656 83.441406 79.011719 81.03125 81.988281 81.03125 C 84.179688 81.03125 86.070312 82.34375 86.910156 84.226562 C 85.210938 77.894531 83.238281 70.523438 81.542969 64.203125 C 81.113281 62.585938 81.375 60.949219 82.148438 59.605469 C 84.839844 54.960938 91.851562 55.847656 93.253906 61.066406 C 94.277344 64.898438 99.566406 84.632812 100.554688 88.320312 C 100.769531 88.152344 100.863281 88.125 100.84375 88.125 L 100.84375 58.808594 C 100.84375 57.136719 101.519531 55.621094 102.617188 54.523438 C 106.410156 50.738281 112.964844 53.402344 112.964844 58.808594 L 112.964844 87.765625 L 113.792969 87.765625 C 115.125 82.785156 120.347656 63.296875 121.25 59.9375 C 122.652344 54.710938 129.664062 53.832031 132.355469 58.472656 C 133.128906 59.816406 133.390625 61.457031 132.957031 63.074219 Z M 132.957031 63.074219 " fill-opacity="1" fill-rule="nonzero"/></g><path fill="#000000" d="M 112.964844 58.808594 C 112.964844 53.933594 107.507812 51.109375 103.535156 53.769531 L 103.535156 85.074219 L 112.964844 85.074219 Z M 112.964844 58.808594 " fill-opacity="1" fill-rule="nonzero"/><path fill="#000000" d="M 121.25 59.9375 C 120.167969 63.980469 115.476562 81.476562 114.515625 85.074219 C 116.539062 85.074219 119.445312 84.964844 122.6875 87.222656 C 123.128906 87.527344 123.554688 87.867188 123.960938 88.238281 C 131.925781 56.894531 130.550781 62.226562 131.777344 57.648438 C 128.691406 53.894531 122.535156 55.140625 121.25 59.9375 Z M 121.25 59.9375 " fill-opacity="1" fill-rule="nonzero"/><path fill="#000000" d="M 83.332031 103.757812 C 85.65625 103.164062 87.375 101.050781 87.375 98.539062 L 87.375 86.417969 C 87.375 82.257812 82.855469 79.695312 79.292969 81.753906 L 79.292969 98.539062 C 79.292969 101.050781 81.011719 103.160156 83.332031 103.757812 Z M 83.332031 103.757812 " fill-opacity="1" fill-rule="nonzero"/><path fill="#000000" d="M 122.457031 90.527344 C 120.691406 88.757812 118.292969 87.765625 115.792969 87.765625 L 102.1875 87.765625 C 96.761719 87.765625 99.792969 99.886719 108.921875 99.886719 L 115.617188 99.886719 C 116.542969 101.164062 117.003906 102.609375 117.003906 104.105469 C 107.488281 105.375 100.152344 113.226562 99.539062 122.824219 C 99.492188 123.550781 98.882812 124.113281 98.15625 124.089844 C 97.417969 124.070312 96.804688 123.449219 96.847656 122.664062 C 97.4375 113.40625 103.527344 105.609375 111.949219 102.582031 L 108.921875 102.582031 C 103.023438 102.582031 98.1875 98.367188 97.058594 92.941406 C 96.558594 90.574219 96.660156 88.375 98.375 86.652344 C 98.808594 86.222656 99.300781 85.875 99.832031 85.613281 C 98.84375 81.933594 94.316406 65.039062 93.253906 61.066406 C 91.917969 56.082031 85.394531 54.996094 82.460938 59.121094 L 89.246094 82.871094 C 89.800781 84.003906 90.066406 85.214844 90.066406 86.417969 L 90.066406 98.539062 C 90.066406 103.511719 85.578125 107.34375 80.640625 106.507812 L 80.640625 111.335938 C 80.640625 121.503906 87.476562 130.082031 96.800781 132.71875 C 96.800781 132.804688 100.171875 133.472656 100.171875 133.394531 C 101.96875 133.613281 102.085938 133.558594 112.289062 133.558594 C 115.976562 133.558594 119.453125 132.660156 122.511719 131.074219 C 127.378906 126.996094 130.472656 120.875 130.472656 114.03125 C 130.472656 104.902344 130.816406 102.65625 129.125 98.78125 C 127.652344 95.386719 125.796875 93.867188 122.457031 90.527344 Z M 122.457031 90.527344 " fill-opacity="1" fill-rule="nonzero"/></svg>